<?xml version="1.0" encoding="utf-8"?>
<!-- Generator: Adobe Illustrator 15.1.0, SVG Export Plug-In . SVG Version: 6.00 Build 0)  -->
<!DOCTYPE svg PUBLIC "-//W3C//DTD SVG 1.1//EN" "http://www.w3.org/Graphics/SVG/1.1/DTD/svg11.dtd">
<svg version="1.1" id="Calque_1" xmlns="http://www.w3.org/2000/svg" xmlns:xlink="http://www.w3.org/1999/xlink" x="0px" y="0px"
	 width="500px" height="284.621px" viewBox="0 0 500 284.621" enable-background="new 0 0 500 284.621" xml:space="preserve">
<g>
	<polyline fill="#8E979C" points="263.181,284.621 2.975,259.235 2.897,249.225 264.034,262.459 	"/>
	<polyline fill="#7C8589" points="264.034,262.459 499.961,246.486 499.933,252.045 263.181,284.621 	"/>
	<polygon fill="#4E595D" points="201.785,16.208 123.996,40.058 74.046,56.273 53.073,51.055 51.705,64.131 13.8,76.753 
		4.148,104.251 3.986,111.491 121.245,84.1 	"/>
	<polygon fill="#3F494D" points="115.949,73.564 129.952,39.151 200.777,15.702 219.58,42.033 126.352,76.766 	"/>
	<polygon fill="#4E595D" points="390.938,166.924 500,185.689 499.547,186.817 391.766,170.851 	"/>
	<polygon fill="#BA8769" points="214.08,42.785 198.528,20.952 134.546,41.951 122.263,74.313 120.375,78.018 120.375,99.032 	"/>
	<path fill="#4E595D" d="M388.832,118.941l4.989-0.209l-0.007-3.184c0,0,0.447,0.041,0.447-0.452c0-0.485-0.447-0.627-0.447-0.627
		l-2.458-0.889L333.752,12.537L202.431,44.582L120.17,98.5l0.091,8.405l143.059-27.823l66.11-55.931l5.896,1.182l51.115,89.247
		l0.586,4.134l1.383,1.374L388.832,118.941z"/>
	<path fill="#D19875" d="M499.933,246.635L264.36,268.696l-1.042-189.854l68.453-57.914c0,0,0,2.639,1.543,2.639
		c1.542,0,1.542-0.883,1.542-0.883l52.379,91.116v2.86c0,0,0.217,1.103,1.54,1.322c1.316,0.222,1.316,0.222,1.316,0.222
		l1.982,51.717l107.474,16.895L499.933,246.635z"/>
	<path fill="#F9FAFA" d="M263.318,78.447L208.334,88.82l-7.863-1.575l-4.875,0.343c0,0-14.144,5.973-14.144,4.797
		c0,0,13.455-9.978-1.135-9.978c-14.592,0-18.317,5.98-18.317,9.224l-1.84,5.529l-39.858,7.871l0.178-27.013L66.099,89.517
		l-0.013-4.037l12.602-29.395l-12.593-2.987l-5.823,2.515c0,0-1.583-4.526-9.601-4.878c-5.903-0.258-13.066,11.806-13.066,11.806
		l-5.81,1.707l1.877,1.599l0.313,1.262l1.645-0.343L35.3,68.604v8.263h0.511l-0.008,1.725l0.403-0.006L36.117,96.5l-32.48,8.062
		L2.705,238.588l0.161,2.499l0.031,8.662l259.53,19.199l1.933-0.253L263.318,78.447z"/>
	<g>
		<path fill="#3F494D" d="M393.814,114.469l-2.458-0.889L333.752,12.537l-1.481,0.359l-81.064,66.858l12.114-0.671l66.11-55.931
			l5.896,1.182l51.115,89.247l0.586,4.134l1.383,1.374l0.42-0.147l4.989-0.209l-0.007-3.184c0,0,0.447,0.041,0.447-0.452
			C394.261,114.611,393.814,114.469,393.814,114.469z"/>
	</g>
	<polygon fill="#CCCDCE" points="66.194,53.043 66.095,85.476 78.952,55.683 	"/>
	<path fill="#C6C7C8" d="M66.2,52.837L60.298,54.8c0,0-2.357-4.116-9.04-4.116c-6.686,0-13.367,11.194-13.367,11.194l-6.096,2.37
		l1.574,1.562v1.384l0.982,0.39l1.004-0.049L35.33,68.75l4.878-1.601c0,0,6.527-12.35,13.017-12.35c6.488,0,8.648,4.916,8.648,4.916
		l4.915-1.965"/>
	<polyline fill="#B1B3B4" points="66.293,58.038 77.011,60.7 78.952,55.683 66.2,52.837 	"/>
	<polygon fill="#EEEFEF" points="264.097,267.909 261.412,268.373 261.412,81.225 264.097,81.225 	"/>
	<path fill="#8E979C" d="M166.894,164.834c0,1.409-0.833,2.552-1.864,2.552c-1.03,0-1.866-1.143-1.866-2.552
		c0-1.405,0.836-2.549,1.866-2.549C166.061,162.286,166.894,163.429,166.894,164.834z"/>
	<path fill="#8E979C" d="M201.605,161.722c0,1.411-0.922,2.554-2.054,2.554c-1.132,0-2.05-1.143-2.05-2.554
		c0-1.409,0.918-2.549,2.05-2.549C200.683,159.173,201.605,160.313,201.605,161.722z"/>
	<path fill="none" stroke="#3F494D" stroke-width="0.1487" d="M184.89,56.62l29.022,8.335c0,0,8.018,1.601,8.018,3.373
		c0,1.763,0,3.925-9.943,11.139l-11.279,2.392L184.89,56.62z"/>
	<path fill="#3F494D" d="M152.128,91.662c0,0,0.336-13.473,9.916-24.796c9.579-11.32,18.661-10.819,21.52-10.442
		c2.866,0.367,15.56,1.33,18.672,25.092l-7.883,1.882L152.128,91.662z"/>
	<path fill="#DBDCDD" d="M191.439,63.969c-3.889-4.981-29.07-9.495-35.875,27.09l6.295,1.854L191.439,63.969z"/>
	<path fill="none" stroke="#3F494D" stroke-width="0.1487" d="M192.214,58.683c0,0,13.826,0.78,18.609,20.967"/>
	<path fill="none" stroke="#3F494D" stroke-width="0.1487" d="M203.467,61.919c0,0,8.883,1.048,14.357,12.929"/>
	<path fill="none" stroke="#3F494D" stroke-width="0.1487" d="M212.738,64.8c0,0,4.784,0.826,8.932,5.355"/>
	<polygon fill="#7C8589" points="261.718,146.022 391.766,167.977 391.766,170.851 261.718,150.543 	"/>
	<polygon fill="#D5D6D7" points="261.718,123.341 277.105,126 277.31,130.308 261.718,127.85 	"/>
	<polygon fill="#D5D6D7" points="261.718,100.491 284.898,106.234 285.105,110.213 261.718,104.677 	"/>
	<polygon fill="#D5D6D7" points="261.718,78.134 296.382,88.593 296.589,92.285 261.718,82.643 	"/>
	<polygon fill="#D5D6D7" points="369.026,110.675 390.154,117.435 390.355,120.726 369.026,114.159 	"/>
	<polygon fill="#D5D6D7" points="377.149,130.465 390.793,134.106 390.995,137.388 377.149,133.954 	"/>
	<polygon fill="#D5D6D7" points="382.406,148.932 391.175,150.772 391.379,154.056 382.406,152.414 	"/>
	<polygon fill="#8E979C" points="120.988,127.199 262.014,104.623 261.718,100.491 120.988,123.589 	"/>
	<polygon fill="#8E979C" points="258.594,128.03 261.718,127.865 261.718,123.341 258.672,123.749 	"/>
	<polygon fill="#8E979C" points="3.211,172.974 261.718,150.543 261.718,146.022 3.296,170.412 	"/>
	<g>
		<path fill="#BFC4C6" d="M181.441,75.098l-0.281-11.881c-1.717,0.547-3.288,1.268-4.724,2.138l2.074,11.78
			C179.478,76.293,180.443,75.601,181.441,75.098z"/>
		<path fill="#BFC4C6" d="M186.246,74.302c0.337,0.05,0.678,0.129,1.015,0.23l2.682-11.749c-0.738-0.274-2.162-0.581-2.162-0.581
			c-1.157,0-1.184-0.057-2.247,0.072l-1.222,11.963C184.933,74.176,185.571,74.191,186.246,74.302z"/>
		<path fill="#8E979C" d="M184.312,74.238l1.222-11.963c-1.836,0.225-3.14,0.55-4.373,0.943l0.281,11.881
			C182.363,74.633,183.309,74.333,184.312,74.238z"/>
		<path fill="#8E979C" d="M189.115,75.367l4.788-8.919c-1.778-2.435-3.258-3.329-3.96-3.664l-2.682,11.749
			C187.895,74.724,188.512,74.997,189.115,75.367z"/>
		<path fill="#BFC4C6" d="M195.294,89.997l9.022-1.807l-4.493-1.25v-2.608l-4.871,1.983
			C195.122,87.457,195.243,88.681,195.294,89.997z"/>
		<path fill="#8E979C" d="M193.237,80.293l4.494-5.067c-0.554-2.117-1.136-3.632-1.553-4.612l-4.653,6.9
			C192.161,78.29,192.735,79.211,193.237,80.293z"/>
		<path fill="#8E979C" d="M194.953,86.315l4.871-1.983v-0.736l-0.715-0.297v-1.151l-0.12-0.117
			c-0.061-0.521-0.129-1.033-0.206-1.528l-4.431,2.895C194.597,84.301,194.796,85.274,194.953,86.315z"/>
		<path fill="#BFC4C6" d="M194.353,83.397l4.431-2.895c-0.28-1.955-0.639-3.705-1.052-5.276l-4.494,5.067
			C193.669,81.218,194.043,82.246,194.353,83.397z"/>
		<path fill="#BFC4C6" d="M191.525,77.515l4.653-6.9c-0.722-1.696-1.503-3.069-2.276-4.167l-4.788,8.919
			C189.973,75.896,190.79,76.604,191.525,77.515z"/>
		<path fill="#BFC4C6" d="M161.816,90.451c-0.723,3.799-0.854,6.412-0.854,6.412l8.712-1.746c0.055-0.85,0.181-2.29,0.478-3.989
			L161.816,90.451z"/>
		<path fill="#8E979C" d="M170.87,87.97l-7.732-3.032c-0.583,1.978-1.012,3.861-1.322,5.513l8.336,0.677
			C170.328,90.142,170.562,89.062,170.87,87.97z"/>
		<path fill="#8E979C" d="M178.511,77.135l-2.074-11.78c-1.748,1.05-3.304,2.318-4.679,3.734l5.07,9.634
			C177.39,78.15,177.949,77.621,178.511,77.135z"/>
		<path fill="#BFC4C6" d="M172.745,83.459l-7.455-4.475c-0.884,2.014-1.589,4.028-2.152,5.955l7.732,3.032
			C171.316,86.408,171.921,84.833,172.745,83.459z"/>
		<path fill="#BFC4C6" d="M176.827,78.724l-5.07-9.634c-1.455,1.479-2.714,3.117-3.804,4.841l6.117,7.734
			C175.024,80.611,175.935,79.625,176.827,78.724z"/>
		<path fill="#8E979C" d="M174.021,81.711c0.018-0.015,0.035-0.037,0.05-0.046l-6.117-7.734c-1.033,1.633-1.911,3.337-2.664,5.054
			l7.455,4.475C173.124,82.829,173.545,82.238,174.021,81.711z"/>
		<path fill="none" stroke="#7A9C13" stroke-width="0.2148" d="M181.864,92.68l0.097,4.075l-0.696-3.948l-11.589,2.311
			c-0.031,0.509-0.042,0.803-0.042,0.803s25.697,7.318,25.697-4.183c0-0.596-0.011-1.177-0.035-1.741L181.864,92.68z"/>
		<polygon fill="none" stroke="#7A9C13" stroke-width="0.2148" points="181.96,96.755 181.864,92.68 181.264,92.807 		"/>
		<path fill="none" stroke="#7A9C13" stroke-width="0.1487" d="M176.827,78.724l2.947,5.601l-1.263-7.189
			C177.949,77.621,177.39,78.15,176.827,78.724z"/>
		<path fill="none" stroke="#7A9C13" stroke-width="0.1487" d="M181.441,75.098c-0.999,0.503-1.964,1.195-2.931,2.037l1.263,7.189
			l1.979,3.767L181.441,75.098z"/>
		<polygon fill="none" stroke="#7A9C13" stroke-width="0.1487" points="179.774,84.324 181.264,92.807 181.864,92.68 
			181.753,88.091 		"/>
		<path fill="none" stroke="#7A9C13" stroke-width="0.1487" d="M194.372,86.55l0.581-0.235c-0.157-1.041-0.356-2.014-0.6-2.917
			l-1.109,0.718l1.109-0.718c-0.31-1.152-0.684-2.18-1.116-3.104l-0.519,0.581l0.519-0.581c-0.502-1.083-1.077-2.003-1.712-2.778
			l-0.789,1.169l0.789-1.169c-0.736-0.912-1.553-1.62-2.411-2.148l-0.885,1.647l0.885-1.647c-0.603-0.37-1.22-0.643-1.854-0.834
			l-0.806,3.529l0.806-3.529c-0.337-0.101-0.678-0.181-1.015-0.23c-0.675-0.111-1.313-0.126-1.935-0.064l-0.262,2.564l0.262-2.564
			c-1.002,0.095-1.948,0.395-2.87,0.86l0.312,12.993l1.046,1.981l-1.046-1.981l0.111,4.589l13.43-2.683
			c-0.051-1.316-0.172-2.541-0.341-3.682L194.372,86.55z"/>
		<path fill="none" stroke="#7A9C13" stroke-width="0.1487" d="M179.774,84.324l-2.947-5.601c-0.892,0.901-1.803,1.887-2.756,2.941
			l2.772,3.503l-2.772-3.503c-0.016,0.01-0.032,0.031-0.05,0.046c-0.475,0.527-0.897,1.118-1.275,1.748l2.84,1.709l-2.84-1.709
			c-0.824,1.374-1.429,2.949-1.875,4.511l5.347,2.102l-5.347-2.102c-0.308,1.092-0.542,2.172-0.718,3.158l3.662,0.302l-3.662-0.302
			c-0.297,1.699-0.423,3.14-0.478,3.989l11.589-2.311L179.774,84.324z"/>
	</g>
	<path fill="#8E979C" d="M197.39,118.086l-29.767,5.017V96.912c0,0-0.576-19.475,14.882-24.624
		c13.6-2.582,15.317,14.308,15.317,17.892L197.39,118.086z"/>
	<polygon fill="#8E979C" points="3.53,145.393 120.988,127.152 120.988,123.589 3.53,143.25 	"/>
	<polygon fill="#8E979C" points="261.252,253.632 264.47,253.871 264.498,249.23 261.23,249.23 206.586,247.446 206.715,251.766 	
		"/>
	<polygon fill="#8E979C" points="158.767,245.465 158.767,249.36 54.668,244.118 54.668,241.371 	"/>
	<polygon fill="#8E979C" points="45.22,240.082 35.604,240.082 2.705,238.588 2.705,241.146 35.604,242.831 45.233,242.677 	"/>
	<polyline fill="#8E979C" points="261.718,78.134 261.538,78.181 258.589,79 258.501,83.144 261.718,82.643 	"/>
	<polygon opacity="0.2" points="207.717,279.467 205.957,279.467 205.957,88.663 207.717,89.049 	"/>
	<polygon opacity="0.2" points="452.208,258.659 451.378,258.659 451.378,179.015 452.208,179.408 	"/>
	<polygon opacity="0.2" points="160.805,275.148 159.788,275.082 159.788,95.275 160.805,98.454 	"/>
	<polygon opacity="0.2" points="121.336,269.863 120.318,272.167 120.318,104.218 121.336,104.812 	"/>
	<polygon opacity="0.2" points="66.032,265.625 65.012,265.625 65.012,92.223 66.032,92.564 	"/>
	<rect x="35.34" y="99.185" opacity="0.2" width="0.7" height="163.085"/>
	<path fill="#7798B2" d="M357.042,106.996c-0.11-15.641-8.938-50.719-26.924-54.51c-22.326-4.718-22.014,39.876-22.014,39.876
		L357.042,106.996z"/>
	<g>
		<path fill="#FFFFFF" d="M320.657,74.018v-3.113l1.3,0.443V53.131c-1.026,0.482-1.978,1.097-2.861,1.833V95.5l2.861,0.857V74.471
			L320.657,74.018z"/>
		<path fill="#FFFFFF" d="M342.499,60.854c-0.909-1.149-1.861-2.213-2.857-3.166v19.708l0.779,0.269v3.119l-0.779-0.266v21.122
			l2.857,0.857V60.854z"/>
		<polygon fill="#FFFFFF" points="329.754,77.135 329.754,98.688 331.836,99.313 331.836,77.846 		"/>
		<path fill="#FFFFFF" d="M331.89,75.266V53.33c-0.518-0.166-1.04-0.305-1.572-0.426c-0.169-0.031-0.339-0.063-0.506-0.083v21.727
			L331.89,75.266z"/>
		<polygon fill="#FFFFFF" points="331.836,77.846 339.641,80.518 339.641,77.396 331.836,74.731 		"/>
		<polygon fill="#FFFFFF" points="321.957,71.348 321.957,74.471 329.754,77.135 329.754,74.016 		"/>
		<polygon fill="#FFFFFF" points="320.657,70.905 320.657,74.018 321.957,74.471 321.957,71.348 		"/>
		<polygon fill="#FFFFFF" points="340.42,80.784 340.42,77.665 339.641,77.396 339.641,80.518 		"/>
		<polygon fill="#FFFFFF" points="329.754,74.016 329.754,77.135 331.836,77.846 331.836,74.731 		"/>
	</g>
	<path fill="#D19875" d="M326.651,101.183c0,0-0.728-15.405,5.415-16.03c6.145-0.625,11.608,5.776,9.578,20.508
		C339.615,120.392,326.651,101.183,326.651,101.183z"/>
	<g>
		<path fill="#FFFFFF" d="M327.186,54.637c18.347,3.61,27.416,36.804,27.661,51.979l1.965,0.592
			c-0.109-15.643-8.938-50.719-26.926-54.521c-4.69-0.989-8.384,0.199-11.285,2.696C321.023,54.316,323.858,53.979,327.186,54.637z"
			/>
	</g>
	<g>
		<path fill="#C18C6C" d="M328.446,52.951c17.753,3.718,26.584,37.648,26.919,53.446l2.087,0.625
			c-0.107-15.641-8.934-50.723-26.922-54.516c-2.577-0.542-4.844-0.429-6.853,0.194C325.139,52.522,326.729,52.594,328.446,52.951z"
			/>
	</g>
	<polygon fill="#595959" points="306.693,92.058 307.789,91.962 307.789,93.656 306.709,93.656 	"/>
	<g>
		<path fill="#595959" d="M341.421,100.215c0-8.087-4.849-14.645-8.645-14.645c-0.403,0-0.77,0.05-1.118,0.14
			c0.199-0.021,0.407-0.044,0.622-0.044c3.801,0,8.65,6.559,8.65,14.646c0,0.87-0.005,1.73-0.021,2.556h1.1
			c0.005-0.031,0.005-0.062,0.005-0.098h-0.611C341.419,101.942,341.421,101.085,341.421,100.215z"/>
	</g>
	<path fill="#BEBFC0" d="M322.454,96.879l4.39,0.779c0,0-0.166-13.66,7.503-12.973l-0.493-0.687c0,0-6.75,0.439-8.911,2.9
		C322.966,89.143,322.551,93.625,322.454,96.879z"/>
	<path fill="#FFFFFF" d="M342.899,102.673c0.014-0.823,0.019-2.078,0.019-2.948c0-7.171-4.54-15.726-9.602-15.726
		c-4.355,0-6.595,5.169-6.834,11.989l-0.312,1.658l0.615,0.088l0.798,0.303c0.229-6.823,1.479-12.563,5.583-12.563
		c3.799,0,8.647,6.554,8.647,14.644c0,0.876-0.002,1.733-0.02,2.556H342.899z"/>
	<path fill="#FFFFFF" d="M342.408,102.771c0.017-0.829,0.017-2.079,0.017-2.947c0-7.175-4.54-15.725-9.602-15.725
		c-4.355,0-6.595,5.167-6.833,11.984l-0.101,1.379l0.593,0.049l0.631,0.052c0.225-6.822,1.46-11.992,5.563-11.992
		c3.799,0,8.647,6.557,8.647,14.645c0,0.87,0,1.727-0.017,2.556H342.408z"/>
	<polygon fill="#FFFFFF" points="328.718,99.897 307.789,93.656 307.789,91.962 328.718,98.206 	"/>
	<polygon fill="#595959" points="307.789,93.656 328.718,99.887 327.803,99.957 306.742,93.685 	"/>
	<polygon fill="#FFFFFF" points="359.26,109.052 341.571,103.769 341.571,102.33 359.26,107.624 	"/>
	<polygon fill="#595959" points="341.571,103.769 359.26,109.048 358.48,109.111 340.694,103.789 	"/>
	<polygon fill="#595959" points="340.647,102.402 341.571,102.327 341.571,103.769 340.663,103.769 	"/>
	<path fill="#595959" d="M348.977,124.31"/>
	<polygon fill="#7798B2" points="357.24,161.867 357.042,126.417 342.6,122.287 343.018,160.047 	"/>
	<polygon fill="#FFFFFF" points="350.759,124.833 350.759,159.668 356.091,160.713 356.091,126.401 357.24,126.61 357.664,162.492 
		343.226,160.083 343.226,158.519 349.083,159.455 349.083,124.31 	"/>
	<polygon fill="#595959" points="359.903,165.943 359.903,166.859 342.733,164.046 342.733,159.977 343.389,160.236 343.389,163.39 
			"/>
	<polygon fill="#FFFFFF" points="356.5,127.018 342.615,123.431 342.588,122.896 356.69,125.965 	"/>
	<g>
		<polygon fill="#C18C6C" points="357.664,162.492 358.87,162.528 358.088,125.996 342.447,121.867 342.447,123.127 
			357.034,126.814 		"/>
	</g>
	<polygon fill="#7798B2" points="309.366,113.911 309.366,153.615 325.889,156.182 325.889,118.236 	"/>
	<polygon fill="#FFFFFF" points="309.315,153.034 309.315,154.413 326.351,157.359 326.223,118.3 324.581,117.917 324.581,155.787 	
		"/>
	<polygon fill="#FFFFFF" points="313.245,115.091 315.145,115.489 315.145,154.606 313.245,154.606 	"/>
	<polygon fill="#FFFFFF" points="309.315,114.763 324.91,118.69 324.647,117.714 309.315,113.717 	"/>
	<g>
		<polygon fill="#C18C6C" points="327.689,117.838 308.25,112.927 308.25,114.047 325.977,118.528 325.995,157.235 327.689,157.394 
					"/>
	</g>
	<polygon fill="#595959" points="328.301,160.948 328.301,161.862 308.679,158.561 308.679,154.491 309.334,154.751 
		309.334,157.896 	"/>
	<polygon fill="#7798B2" points="360.049,244.139 360.355,198.709 344,197.757 344.102,245.879 	"/>
	<polygon fill="#FFFFFF" points="343.934,197.625 343.934,199.95 357.142,200.611 357.225,211.332 344.017,210.912 344.017,213.241 
		357.307,213.493 357.307,243.637 344.017,244.215 344.017,246.217 358.968,245.133 359.466,198.458 	"/>
	<g>
		<polygon fill="#C18C6C" points="360.956,197.848 343.86,196.908 343.86,197.894 358.568,198.712 358.568,245.174 360.956,245.045 
					"/>
	</g>
	<rect x="350.662" y="213.163" fill="#FFFFFF" width="1.412" height="31.053"/>
	<polygon fill="#B9BBBC" points="345.223,246.014 345.223,247.713 362.266,246.729 362.266,245.157 	"/>
	<g>
		<polygon fill="#595959" points="345.223,246.383 344.2,246.432 344.185,248.458 361.233,247.713 361.233,246.667 345.223,247.596 
					"/>
	</g>
	<polygon fill="#595959" points="344.2,247.63 345.223,247.63 345.223,246.014 344.207,246.137 	"/>
	<polygon fill="#7798B2" points="327.65,245.624 327.997,196.903 309.434,195.88 309.546,247.495 	"/>
	<polygon fill="#FFFFFF" points="309.359,195.744 309.359,198.238 324.348,198.942 324.447,210.436 309.449,209.994 
		309.449,212.489 324.54,212.757 324.54,245.094 309.449,245.711 309.449,247.85 326.426,246.693 326.988,196.625 	"/>
	<g>
		<polygon fill="#C18C6C" points="328.68,195.983 309.278,194.962 309.278,196.032 325.97,196.908 325.97,246.739 328.68,246.595 		
			"/>
	</g>
	<rect x="313.885" y="211.657" fill="#FFFFFF" width="1.601" height="34.646"/>
	<polygon fill="#B9BBBC" points="310.823,247.63 310.823,249.458 330.167,248.402 330.167,246.715 	"/>
	<g>
		<polygon fill="#595959" points="310.823,248.026 309.661,248.087 309.646,250.258 329.001,249.458 329.001,248.34 
			310.823,249.327 		"/>
	</g>
	<polygon fill="#595959" points="309.656,249.37 310.823,249.37 310.823,247.63 309.666,247.77 	"/>
	<polygon fill="#7798B2" points="241.563,192.135 241.563,247.384 218.751,247.309 218.751,193.161 	"/>
	<polygon fill="#FFFFFF" points="219.146,192.513 241.124,191.744 241.124,193.926 220.686,194.439 220.686,207.035 
		241.251,206.395 241.383,208.965 221.071,209.349 221.071,245.97 241.509,246.495 241.367,248.356 219.66,247.77 	"/>
	<g>
		<polygon fill="#D9DADB" points="241.405,192.042 241.405,191.104 218.59,192.14 218.59,247.951 219.492,247.973 219.492,193.038 
					"/>
	</g>
	<polygon fill="#4A4A4A" points="245.514,249.536 245.514,252.928 214.648,251.818 214.505,252.394 246.528,253.402 246.51,249.432 
			"/>
	<polygon fill="#7798B2" points="152.725,195.006 152.725,243.844 134.942,243.454 134.942,195.921 	"/>
	<polygon fill="#FFFFFF" points="135.057,195.723 152.191,195.045 152.191,196.974 136.26,197.43 136.26,208.561 152.291,208.428 
		152.391,210.697 136.563,210.601 136.563,242.643 152.494,243.436 152.689,245.257 135.461,244.232 	"/>
	<g>
		<polygon fill="#D9DADB" points="152.413,195.301 152.413,194.473 134.625,195.389 134.625,244.395 135.328,244.409 
			135.328,196.182 		"/>
	</g>
	<polygon fill="#4A4A4A" points="154.738,245.451 154.738,248.844 131.68,247.309 131.539,247.882 155.753,249.313 155.732,245.35 	
		"/>
	<polygon fill="#7798B2" points="241.594,100.311 241.594,146.373 218.542,148.664 218.542,104.166 	"/>
	<polygon fill="#FFFFFF" points="241.654,147.769 219.277,149.93 218.899,104.037 241.713,100.168 241.713,102.382 220.554,105.788 
		220.554,115.453 241.647,111.871 241.647,115.736 221.477,118.776 221.477,147.508 241.647,145.111 	"/>
	<g>
		<polygon fill="#D9DADB" points="241.713,100.646 241.713,100.168 241.713,99.606 218.009,103.714 218.009,150.101 
			219.295,149.966 219.295,104.344 		"/>
	</g>
	<polygon fill="#4A4A4A" points="245.621,148.711 245.75,151.979 215.283,154.483 215.283,155.197 246.748,152.598 246.62,148.605 	
		"/>
	<polygon fill="#7798B2" points="153.387,115.062 153.396,157.183 136.87,158.9 136.87,117.959 	"/>
	<polygon fill="#FFFFFF" points="153.407,157.1 137.392,158.568 137.124,117.663 153.387,114.694 153.387,116.457 138.305,118.947 
		138.305,127.85 153.343,125.639 153.343,129.197 138.959,130.902 138.959,157.062 153.343,155.465 	"/>
	<g>
		<polygon fill="#D9DADB" points="153.387,115.418 153.387,115.062 153.355,114.159 136.22,117.17 135.92,158.619 137.41,158.568 
			137.41,118.115 		"/>
	</g>
	<polygon fill="#4A4A4A" points="156.175,155.963 156.175,159.357 133.688,161.715 133.688,162.438 157.057,159.969 
		157.057,155.853 	"/>
	<path fill="#7798B2" d="M193.918,90.041v61.625l-21.318,2.228c0,0,0-55.632,0-58.502c0-2.874,1.737-17.605,12.231-17.605
		C193.918,77.786,193.918,90.041,193.918,90.041z"/>
	<g>
		<path fill="#FFFFFF" d="M186.375,77.509c-0.365-0.051-0.737-0.075-1.133-0.075c-10.848,0-12.643,14.724-12.643,17.59
			c0,2.876,0,58.507,0,58.507l2.336-0.232c0-3.857,0-55.501,0-58.274C174.936,92.27,176.599,78.55,186.375,77.509z"/>
	</g>
	<polygon fill="#FFFFFF" points="174.577,93.233 193.791,89.287 193.791,94.49 174.395,98.261 	"/>
	<polygon fill="#FFFFFF" points="185.888,95.391 185.888,151.771 183.02,152.667 183.02,95.208 	"/>
	<polygon fill="#FFFFFF" points="193.951,150.113 174.039,152.308 172.784,153.031 172.784,154.108 193.951,152.086 	"/>
	<g>
		<path fill="#D9DADB" d="M185.59,77.468c-0.289-0.018-0.583-0.033-0.889-0.033c-10.844,0-12.641,14.724-12.641,17.59
			c0,2.876,0,59.083,0,59.083h1.26c0-3.433,0-56.302,0-59.083C173.321,92.238,175.554,78.271,185.59,77.468z"/>
	</g>
	<polygon fill="#7798B2" points="98.445,114.256 112.191,111.3 112.191,159.894 98.314,161.514 	"/>
	<polygon fill="#FFFFFF" points="112.191,114.549 100.529,116.772 100.529,159.745 112.121,158.851 112.213,160.455 99.345,161.369 
		99.345,115.442 112.191,112.636 	"/>
	<g>
		<polygon fill="#D9DADB" points="112.191,113.374 112.343,111.3 97.521,114.014 97.374,161.722 99.345,161.369 99.196,115.878 		
			"/>
	</g>
	<polygon fill="#FFFFFF" points="112.045,128.58 100.234,130.354 100.234,126.961 112.045,125.185 	"/>
	<rect x="105.104" y="128.877" fill="#FFFFFF" width="1.92" height="30.723"/>
	<polygon fill="#7798B2" points="73.829,118.822 86.715,116.057 86.715,161.593 73.697,163.125 	"/>
	<polygon fill="#FFFFFF" points="86.715,119.096 75.774,121.18 75.774,161.461 86.645,160.625 86.732,162.134 74.671,162.984 
		74.671,119.935 86.715,117.304 	"/>
	<g>
		<polygon fill="#D9DADB" points="86.715,117.994 86.851,116.057 72.961,118.592 72.822,163.316 74.671,162.984 74.531,120.349 		
			"/>
	</g>
	<polygon fill="#FFFFFF" points="86.574,132.25 75.501,133.91 75.501,130.733 86.574,129.068 	"/>
	<rect x="80.349" y="132.531" fill="#FFFFFF" width="1.8" height="28.789"/>
	<polygon fill="#7798B2" points="109.449,241.967 96.564,241.792 95.923,193.649 110.421,193.649 	"/>
	<polygon fill="#FFFFFF" points="110.319,194.12 96.115,194.151 95.437,242.665 109.461,243.012 109.461,241.251 97.626,240.917 
		98.197,195.68 110.229,195.57 	"/>
	<rect x="98.398" y="206.955" fill="#FFFFFF" width="11.5" height="1.647"/>
	<g>
		<polygon fill="#D9DADB" points="110.319,194.12 110.349,192.471 94.521,192.598 94.155,242.677 96.068,242.792 96.403,194.225 		
			"/>
	</g>
	<polygon fill="#7798B2" points="83.723,241.097 71.255,241.097 70.542,194.53 84.714,194.019 	"/>
	<polygon fill="#FFFFFF" points="84.619,194.473 70.723,195.015 70.166,241.456 83.732,242.11 83.732,240.414 72.288,239.914 
		72.739,196.498 84.525,195.875 	"/>
	<rect x="71.63" y="207.24" fill="#FFFFFF" width="12.527" height="1.587"/>
	<g>
		<polygon fill="#D9DADB" points="84.619,194.473 84.643,192.875 69.181,193.514 68.926,241.358 70.777,241.463 71.004,195.098 		
			"/>
	</g>
	<polygon fill="#7798B2" points="45.546,124.461 55.753,122.164 55.962,164.459 45.653,165.612 	"/>
	<polygon fill="#FFFFFF" points="55.753,124.208 47.106,125.875 47.315,163.988 55.908,163.478 55.976,164.958 46.426,165.477 
		46.217,124.653 55.753,122.453 	"/>
	<g>
		<polygon fill="#D9DADB" points="55.753,123.134 55.892,121.59 44.853,123.718 44.947,165.799 46.426,165.477 46.11,125.063 		"/>
	</g>
	<polygon fill="#FFFFFF" points="55.976,137.215 46.888,138.486 47.106,135.896 55.911,134.747 	"/>
	<polygon fill="#FFFFFF" points="52.418,164.201 50.977,164.201 50.77,136.329 52.209,136.329 	"/>
	<polygon fill="#7798B2" points="15.07,129.864 30.418,127.163 30.623,167.374 15.177,169.035 	"/>
	<polygon fill="#FFFFFF" points="30.557,129.626 16.635,131.684 16.838,167.414 30.715,166.4 30.779,167.876 15.954,168.903 
		15.745,130.462 30.557,127.865 	"/>
	<g>
		<polygon fill="#D9DADB" points="30.557,128.536 30.693,127 14.379,129.518 14.472,169.232 15.954,168.903 15.636,130.871 		"/>
	</g>
	<polygon fill="#FFFFFF" points="30.636,141.141 16.27,143.521 16.488,140.931 30.573,138.674 	"/>
	<polygon fill="#FFFFFF" points="20.001,167.767 18.744,167.767 18.563,130.757 19.823,130.757 	"/>
	<polygon fill="#FFFFFF" points="28.603,167.767 27.341,167.767 27.16,129.725 28.419,129.725 	"/>
	<path fill="#F0F1F1" d="M57.906,100.52l0.885-24.226c0,0,0.843-11.09-6.447-11.09c-7.295,0-8.984,12.157-8.984,14.69
		c0,2.538-0.634,23.565-0.634,23.565L57.906,100.52z"/>
	<path fill="#7798B2" d="M58.529,76.578l-0.59,23.431l-8.835,1.629c0,0,0.126-20.983,0.152-22.462
		c0.023-1.483,0.907-9.054,5.444-8.976C58.638,70.262,58.529,76.578,58.529,76.578z"/>
	<g>
		<path fill="#FFFFFF" d="M55.373,70.058c-0.159-0.024-0.316-0.042-0.488-0.042c-4.693-0.085-5.601,7.496-5.624,8.973
			c-0.027,1.485-0.469,22.438-0.469,22.438l1.012-0.109c0.032-1.988,0.442-20.887,0.465-22.313
			C50.293,77.587,51.133,70.527,55.373,70.058z"/>
	</g>
	<polygon fill="#FFFFFF" points="50.212,81.44 58.562,79.545 58.514,82.23 50.088,84.03 	"/>
	<polygon fill="#FFFFFF" points="54.984,80.569 54.663,100.336 53.416,100.621 53.743,80.485 	"/>
	<polygon fill="#FFFFFF" points="57.925,99.492 49.307,101.266 48.757,101.633 48.746,102.177 57.906,100.52 	"/>
	<g>
		<path fill="#D9DADB" d="M55.033,70.034c-0.123-0.012-0.253-0.018-0.382-0.025c-5.114-0.09-7.504,5.83-7.578,9.998
			c-0.022,1.477-0.657,22.906-0.657,22.906l2.704-0.671c0.029-1.774,0.427-21.814,0.45-23.247
			C49.598,77.556,50.681,70.375,55.033,70.034z"/>
	</g>
	<polygon fill="#7798B2" points="13.122,195.221 28.47,194.842 28.67,238.283 13.229,238.143 	"/>
	<polygon fill="#FFFFFF" points="28.609,197.718 14.855,197.925 14.89,236.514 28.76,237.306 28.831,238.783 13.999,238.006 
		13.795,195.819 28.609,195.55 	"/>
	<g>
		<polygon fill="#D9DADB" points="28.609,196.229 28.743,194.683 12.426,194.869 12.523,237.872 13.999,238.006 13.686,196.226 		
			"/>
	</g>
	<polygon fill="#FFFFFF" points="19.369,236.87 18.11,236.87 17.93,196.41 19.192,196.41 	"/>
	<polygon fill="#FFFFFF" points="26.649,238.676 25.39,238.676 25.206,196.495 26.466,196.495 	"/>
	<rect x="14.548" y="207.257" fill="#FFFFFF" width="13.893" height="3.135"/>
	<rect x="402.077" y="188.379" fill="#7798B2" width="3.83" height="10.65"/>
	<polygon fill="#FFFFFF" points="404.215,188.605 404.215,198.021 402.046,198.021 402.046,199.273 405.995,199.273 
		405.907,188.379 	"/>
	<polygon fill="#C18C6C" points="406.559,188.045 406.559,199.385 404.986,199.32 404.999,188.825 402.134,188.692 402.161,187.925 
			"/>
	<polygon fill="#595959" points="407.311,200.985 401.809,200.897 401.809,199.708 407.311,199.803 	"/>
	<polygon fill="#B9BBBC" points="407.872,200.5 402.367,200.396 402.367,199.219 407.872,199.32 	"/>
	<polyline fill="none" stroke="#646567" stroke-width="0.223" stroke-linecap="round" stroke-linejoin="round" points="
		403.649,186.122 404.959,186.014 404.959,202.023 404.088,202.023 	"/>
	<polyline fill="none" stroke="#646567" stroke-width="0.2122" stroke-linecap="round" stroke-linejoin="round" points="
		407.464,194.178 408.151,193.633 401.354,193.415 400.865,193.633 	"/>
	<rect x="413.58" y="189.269" fill="#7798B2" width="3.831" height="10.659"/>
	<polygon fill="#FFFFFF" points="415.721,189.498 415.721,198.917 413.555,198.917 413.555,200.167 417.5,200.167 417.411,189.269 	
		"/>
	<polygon fill="#C18C6C" points="418.062,188.944 418.062,200.284 416.496,200.218 416.502,189.722 413.641,189.59 413.667,188.815 
			"/>
	<polygon fill="#595959" points="418.815,201.886 413.312,201.783 413.312,200.609 418.815,200.707 	"/>
	<polygon fill="#B9BBBC" points="419.374,201.402 413.871,201.295 413.871,200.121 419.374,200.218 	"/>
	<polyline fill="none" stroke="#646567" stroke-width="0.223" stroke-linecap="round" stroke-linejoin="round" points="
		415.153,187.02 416.463,186.913 416.463,202.925 415.589,202.925 	"/>
	<polyline fill="none" stroke="#646567" stroke-width="0.2122" stroke-linecap="round" stroke-linejoin="round" points="
		418.968,195.072 419.662,194.53 412.855,194.315 412.369,194.53 	"/>
	<rect x="424.186" y="190.016" fill="#7798B2" width="3.832" height="10.656"/>
	<polygon fill="#FFFFFF" points="426.33,190.246 426.33,199.65 424.161,199.65 424.161,200.915 428.111,200.915 428.018,190.016 	
		"/>
	<polygon fill="#C18C6C" points="428.673,189.693 428.673,201.029 427.1,200.967 427.11,190.467 424.251,190.335 424.274,189.559 	
		"/>
	<polygon fill="#595959" points="429.429,202.632 423.917,202.54 423.917,201.354 429.429,201.456 	"/>
	<polygon fill="#B9BBBC" points="429.986,202.142 424.481,202.042 424.481,200.865 429.986,200.967 	"/>
	<polyline fill="none" stroke="#646567" stroke-width="0.223" stroke-linecap="round" stroke-linejoin="round" points="
		425.763,187.769 427.074,187.662 427.074,203.668 426.2,203.668 	"/>
	<polyline fill="none" stroke="#646567" stroke-width="0.2122" stroke-linecap="round" stroke-linejoin="round" points="
		429.581,195.819 430.265,195.275 423.468,195.062 422.975,195.275 	"/>
	<rect x="434.95" y="190.762" fill="#7798B2" width="3.826" height="10.662"/>
	<polygon fill="#FFFFFF" points="437.086,191.002 437.086,200.409 434.923,200.409 434.923,201.662 438.869,201.662 
		438.776,190.762 	"/>
	<polygon fill="#C18C6C" points="439.432,190.431 439.432,201.778 437.857,201.714 437.872,191.211 435.008,191.083 
		435.031,190.311 	"/>
	<polygon fill="#595959" points="440.186,203.38 434.681,203.287 434.681,202.103 440.186,202.196 	"/>
	<polygon fill="#B9BBBC" points="440.741,202.891 435.238,202.789 435.238,201.613 440.741,201.714 	"/>
	<polyline fill="none" stroke="#646567" stroke-width="0.223" stroke-linecap="round" stroke-linejoin="round" points="
		436.524,188.511 437.831,188.407 437.831,204.415 436.958,204.415 	"/>
	<polyline fill="none" stroke="#646567" stroke-width="0.2122" stroke-linecap="round" stroke-linejoin="round" points="
		440.335,196.564 441.026,196.026 434.225,195.802 433.732,196.026 	"/>
	<rect x="458.751" y="193.249" fill="#7798B2" width="3.403" height="9.467"/>
	<polygon fill="#FFFFFF" points="460.653,193.451 460.653,201.813 458.729,201.813 458.729,202.935 462.235,202.935 
		462.155,193.249 	"/>
	<polygon fill="#C18C6C" points="462.736,192.958 462.736,203.031 461.339,202.974 461.346,193.644 458.805,193.522 458.83,192.84 	
		"/>
	<polygon fill="#595959" points="463.405,204.461 458.514,204.374 458.514,203.319 463.405,203.41 	"/>
	<polygon fill="#B9BBBC" points="463.9,204.019 459.012,203.934 459.012,202.887 463.9,202.974 	"/>
	<polyline fill="none" stroke="#646567" stroke-width="0.1982" stroke-linecap="round" stroke-linejoin="round" points="
		460.157,191.242 461.314,191.141 461.314,205.373 460.539,205.373 	"/>
	<polyline fill="none" stroke="#646567" stroke-width="0.1886" stroke-linecap="round" stroke-linejoin="round" points="
		463.545,198.405 464.157,197.917 458.109,197.726 457.674,197.917 	"/>
	<rect x="468.465" y="194.517" fill="#7798B2" width="3.296" height="9.156"/>
	<polygon fill="#FFFFFF" points="470.308,194.718 470.308,202.799 468.446,202.799 468.446,203.887 471.837,203.887 
		471.761,194.517 	"/>
	<polygon fill="#C18C6C" points="472.321,194.245 472.321,203.983 470.97,203.921 470.982,194.904 468.521,194.793 468.541,194.125 
			"/>
	<polygon fill="#595959" points="472.969,205.362 468.239,205.28 468.239,204.261 472.969,204.349 	"/>
	<polygon fill="#B9BBBC" points="473.444,204.938 468.719,204.854 468.719,203.841 473.444,203.921 	"/>
	<polyline fill="none" stroke="#646567" stroke-width="0.1917" stroke-linecap="round" stroke-linejoin="round" points="
		469.82,192.583 470.944,192.491 470.944,206.247 470.196,206.247 	"/>
	<polyline fill="none" stroke="#646567" stroke-width="0.1823" stroke-linecap="round" stroke-linejoin="round" points="
		473.099,199.505 473.692,199.035 467.848,198.849 467.428,199.035 	"/>
	<rect x="477.376" y="195.362" fill="#7798B2" width="3.147" height="8.756"/>
	<polygon fill="#FFFFFF" points="479.137,195.552 479.137,203.287 477.354,203.287 477.354,204.318 480.597,204.318 
		480.524,195.362 	"/>
	<polygon fill="#C18C6C" points="481.065,195.094 481.065,204.415 479.771,204.357 479.779,195.728 477.428,195.626 
		477.452,194.984 	"/>
	<polygon fill="#595959" points="481.681,205.731 477.159,205.651 477.159,204.678 481.681,204.757 	"/>
	<polygon fill="#B9BBBC" points="482.142,205.326 477.618,205.246 477.618,204.273 482.142,204.357 	"/>
	<polyline fill="none" stroke="#646567" stroke-width="0.1833" stroke-linecap="round" stroke-linejoin="round" points="
		478.675,193.509 479.75,193.419 479.75,206.573 479.032,206.573 	"/>
	<polyline fill="none" stroke="#646567" stroke-width="0.1744" stroke-linecap="round" stroke-linejoin="round" points="
		481.808,200.133 482.376,199.684 476.786,199.5 476.383,199.684 	"/>
	<rect x="485.243" y="195.895" fill="#7798B2" width="3.078" height="8.571"/>
	<polygon fill="#FFFFFF" points="486.968,196.08 486.968,203.653 485.22,203.653 485.22,204.665 488.395,204.665 488.321,195.895 	
		"/>
	<polygon fill="#C18C6C" points="488.848,195.631 488.848,204.75 487.584,204.699 487.589,196.255 485.294,196.149 485.313,195.534 
			"/>
	<polygon fill="#595959" points="489.454,206.039 485.028,205.963 485.028,205.016 489.454,205.096 	"/>
	<polygon fill="#B9BBBC" points="489.904,205.651 485.477,205.573 485.477,204.618 489.904,204.699 	"/>
	<polyline fill="none" stroke="#646567" stroke-width="0.1794" stroke-linecap="round" stroke-linejoin="round" points="
		486.51,194.088 487.559,193.995 487.559,206.875 486.859,206.875 	"/>
	<polyline fill="none" stroke="#646567" stroke-width="0.1707" stroke-linecap="round" stroke-linejoin="round" points="
		489.579,200.558 490.135,200.127 484.662,199.947 484.266,200.127 	"/>
	<polygon fill="#3F494D" points="100.124,59.473 99.909,76.232 109.182,73.571 109.182,56.72 	"/>
	<polygon opacity="0.34" points="108.2,57.598 101.332,59.83 101.332,75.25 108.515,73.298 	"/>
	<polygon fill="#E9E9EA" points="115.808,54.363 114.677,57.591 108.839,56.72 107.528,51.755 	"/>
	<path fill="#C6C7C8" d="M95.505,56.72c0,0,4.619-0.036,4.619,2.753l9.059-2.753c-1.128-2.44-0.171-4.095-0.171-4.095
		S101.43,52.187,95.505,56.72z"/>
	<polygon fill="#FFFFFF" points="117.818,50.265 116.873,54.642 108.81,52.581 108.81,48.034 	"/>
	<polygon fill="#E5E5E6" points="94.999,56.878 108.81,52.581 108.81,48.205 94.999,52.837 	"/>
	<polygon fill="#3F494D" points="109.183,56.72 114.723,57.477 109.941,73.5 109.099,73.456 	"/>
	<polygon fill="#FFFFFF" points="108.377,57.598 102.448,59.46 102.448,74.445 108.449,72.856 	"/>
	<polygon fill="#7798B2" points="108.388,58.577 103.169,60.302 103.169,73.267 108.449,71.792 	"/>
	<polygon fill="#3F494D" points="76.298,66.833 76.098,82.279 84.648,79.831 84.648,64.294 	"/>
	<polygon opacity="0.34" points="83.746,65.105 77.409,67.166 77.409,81.373 84.036,79.57 	"/>
	<polygon fill="#E9E9EA" points="90.756,62.12 89.711,65.097 84.329,64.294 83.121,59.716 	"/>
	<path fill="#C6C7C8" d="M72.039,64.294c0,0,4.259-0.031,4.259,2.538l8.354-2.538c-1.045-2.252-0.162-3.775-0.162-3.775
		S77.5,60.119,72.039,64.294z"/>
	<polygon fill="#FFFFFF" points="92.605,58.347 91.735,62.378 84.303,60.482 84.303,56.289 	"/>
	<polygon fill="#E5E5E6" points="71.574,64.436 84.303,60.482 84.303,56.444 71.574,60.718 	"/>
	<polygon fill="#3F494D" points="84.653,64.294 89.752,64.988 85.35,79.754 84.568,79.715 	"/>
	<polygon fill="#FFFFFF" points="83.906,65.105 78.44,66.817 78.44,80.631 83.969,79.17 	"/>
	<polygon fill="#7798B2" points="83.913,66.009 79.107,67.597 79.107,79.545 83.969,78.189 	"/>
	<polygon fill="#3F494D" points="20.121,83.397 19.945,97.217 27.589,95.019 27.589,81.127 	"/>
	<polygon opacity="0.34" points="26.781,81.858 21.113,83.694 21.113,96.401 27.043,94.792 	"/>
	<polygon fill="#E9E9EA" points="33.053,79.188 32.119,81.845 27.304,81.127 26.225,77.029 	"/>
	<path fill="#C6C7C8" d="M16.31,81.127c0,0,3.811-0.039,3.811,2.27l7.469-2.27c-0.932-2.017-0.142-3.375-0.142-3.375
		S21.196,77.391,16.31,81.127z"/>
	<polygon fill="#FFFFFF" points="34.707,75.803 33.933,79.411 27.283,77.714 27.283,73.967 	"/>
	<polygon fill="#E5E5E6" points="15.894,81.249 27.283,77.714 27.283,74.108 15.894,77.925 	"/>
	<polygon fill="#3F494D" points="27.589,81.127 32.156,81.75 28.216,94.965 27.521,94.919 	"/>
	<polygon fill="#FFFFFF" points="26.922,81.858 22.035,83.389 22.035,95.748 26.986,94.433 	"/>
	<polygon fill="#7798B2" points="26.934,82.658 22.63,84.079 22.63,94.772 26.986,93.561 	"/>
	<polyline fill="#D9DADB" points="39.063,252.416 39.063,194.307 55.958,194.307 55.958,253.657 	"/>
	<polyline fill="#7B7C7E" points="55.958,252.765 55.958,259.33 39.063,257.796 39.063,252.416 	"/>
	<polygon fill="#FFFFFF" points="55.958,259.33 42.833,258.148 42.833,195.705 55.958,195.705 	"/>
	<polygon fill="#7798B2" points="44.989,196.862 56.085,196.862 55.958,211.961 44.998,212.067 	"/>
	<polygon fill="#7798B2" points="44.989,214.493 56.085,214.403 55.958,257.37 44.998,256.463 	"/>
	<polygon fill="#D9DADB" points="197.244,270.542 197.065,192.707 166.886,193.306 166.533,269.196 	"/>
	<polygon fill="#FFFFFF" points="196.588,270.709 196.44,194.186 171.76,194.776 171.467,269.389 	"/>
	<polygon fill="#7798B2" points="193.928,267.622 181.185,267.316 181.646,214.235 194.237,213.917 	"/>
	<polygon fill="#7798B2" points="176.316,267.918 172.935,267.602 173.377,212.295 176.611,212.251 	"/>
	<polygon fill="#7798B2" points="194.443,209.04 173.46,209.318 173.46,196.886 194.384,196.564 	"/>
	<polygon fill="#7D868B" points="166.564,261.859 171.467,261.429 171.379,269.503 166.533,269.196 	"/>
	<polygon fill="#3F494D" points="260.315,45.382 247.884,54.993 246.025,58.109 271.329,52.383 270.137,50.531 	"/>
	<polygon fill="#566266" points="260.315,45.382 282.935,39.433 287.33,40.176 271.329,52.383 	"/>
	<polygon fill="#7996A0" points="281.077,41.292 261.606,46.208 249.167,54.89 269.626,50.399 	"/>
	<polygon fill="#A7A8AA" points="201.09,5.033 209.447,7.842 209.447,8.867 208.923,9.123 193.76,8.955 193.167,8.785 
		193.167,7.674 	"/>
	<polygon fill="#A7A8AA" points="201.09,0 209.447,3.542 209.447,4.565 208.923,4.823 205.55,5.42 195.505,5.374 193.76,4.653 
		193.167,4.48 193.167,3.373 	"/>
	<polygon fill="#3F494D" points="208.923,44.253 208.923,9.123 208.923,8.733 200.795,5.98 200.795,50.278 	"/>
	<polygon fill="#4E595D" points="201.006,5.98 193.537,8.733 193.537,52.119 201.006,50.278 	"/>
	<polygon fill="#CACBCC" points="201.048,1.924 195.1,4.33 195.1,7.223 201.008,5.338 	"/>
	<polygon fill="#727375" points="207.04,4.529 207.04,7.429 201.008,5.338 201.048,1.924 	"/>
	<polyline fill="#003E4F" points="487.176,253.847 486.652,212.318 470.245,211.59 470.245,256.12 	"/>
	<g>
		<polyline fill="#6B7378" points="485.763,247.836 485.763,254.007 487.176,253.847 487.176,247.794 		"/>
		<polyline fill="#C18C6C" points="487.176,247.794 487.176,211.763 470.245,211.59 470.245,212.692 485.763,212.889 
			485.763,247.836 		"/>
	</g>
	<polygon fill="#BEBFC0" points="123.673,79.013 66.522,92.814 61.45,90.942 114.949,75.004 	"/>
	<polyline fill="#DBDCDD" points="254.273,76.1 266.98,79.77 266.98,74.922 254.402,70.465 	"/>
	<polyline fill="#FFFFFF" points="254.402,70.465 199.091,82.264 199.091,86.715 254.273,76.1 	"/>
	<path fill="#BEBFC0" d="M112.07,104.145l7.185,1.204l41.667-8.018l-0.715-2.032C160.206,95.298,151.72,92.177,112.07,104.145z"/>
	<polyline fill="#DBDCDD" points="155.188,95.629 160.955,97.462 161.477,92.742 155.58,90.909 	"/>
	<polyline fill="#FFFFFF" points="155.58,90.909 112.07,99.949 112.07,104.145 155.188,95.629 	"/>
	<polygon fill="#BEBFC0" points="199.091,86.715 207.549,89.055 263.096,78.72 254.394,75.932 	"/>
	<polygon fill="#FFFFFF" points="61.45,87.345 61.45,91.138 115.746,77.339 123.938,79.479 123.938,74.793 116.015,72.75 	"/>
	<polygon fill="#BEBFC0" points="36.054,97.819 36.117,99.318 3.535,106.549 0.013,105.875 31.519,96.359 	"/>
	<polygon fill="#FFFFFF" points="0,103.029 0.013,105.875 33.119,97.819 36.117,98.345 36.162,95.247 33.046,94.743 	"/>
</g>
</svg>
