<svg width="172" height="61" viewBox="0 0 172 61" fill="none" xmlns="http://www.w3.org/2000/svg">
<path opacity="0.975" fill-rule="evenodd" clip-rule="evenodd" d="M55.7926 0.966429C62.483 0.319183 68.6462 1.78691 74.2826 5.3696C81.3415 11.2031 83.169 18.3986 79.7651 26.9559C76.0187 34.2192 70.3212 39.3382 62.6726 42.3133C54.416 45.583 46.1742 45.583 37.9476 42.3133C28.2795 37.0572 25.3054 29.2174 29.0251 18.7939C32.6672 11.5043 38.2929 6.38516 45.9026 3.4365C49.1308 2.21302 52.4274 1.38967 55.7926 0.966429ZM58.1576 7.62488C62.386 7.46976 66.471 8.14991 70.4126 9.66537C70.6311 9.77693 70.7743 9.95592 70.8426 10.2023C70.3683 12.3128 69.7951 14.3891 69.1226 16.4312C65.9978 15.0201 62.7369 14.1609 59.3401 13.8538C57.3927 13.619 55.7445 14.1918 54.3951 15.5721C53.8961 16.7268 54.147 17.6934 55.1476 18.4717C58.4608 19.6466 61.7576 20.8637 65.0376 22.1231C67.8483 23.6958 68.9592 26.0943 68.3701 29.3185C67.0554 32.9231 64.5829 35.3932 60.9526 36.7288C54.8421 39.0452 48.6071 39.4748 42.2476 38.0175C41.0559 37.7086 39.9093 37.279 38.8076 36.7288C38.6954 36.6083 38.6238 36.465 38.5926 36.2992C39.1161 34.0278 39.6895 31.7725 40.3126 29.5333C43.2919 30.8238 46.3737 31.7903 49.5576 32.433C51.5874 32.7423 53.5224 32.4557 55.3626 31.5738C57.1508 29.9762 57.0076 28.5442 54.9326 27.278C52.5285 26.3343 50.0917 25.4751 47.6226 24.7006C42.7819 22.3673 41.671 18.8232 44.2901 14.0685C46.5341 11.2446 49.4366 9.41895 52.9976 8.59143C54.7348 8.1954 56.4548 7.87322 58.1576 7.62488Z" fill="#474647"/>
<path opacity="0.991" fill-rule="evenodd" clip-rule="evenodd" d="M138.352 0.966691C150.299 0.222751 159.652 4.73331 166.41 14.4984C171.226 22.6571 172.157 31.2487 169.205 40.273C164.713 51.4178 156.508 57.8258 144.587 59.4966C131.903 59.604 119.218 59.6399 106.532 59.604C108.6 47.6416 110.714 35.6851 112.875 23.7343C115.482 13.7566 121.537 6.77595 131.042 2.7924C133.457 1.97457 135.894 1.36601 138.352 0.966691Z" fill="#1F579E"/>
<path opacity="0.965" fill-rule="evenodd" clip-rule="evenodd" d="M8.06256 8.05467C16.5921 7.9831 25.1204 8.05469 33.6476 8.26945C31.7695 9.7881 30.1929 11.578 28.9176 13.6392C24.3851 13.7512 19.8702 13.9302 15.3726 14.1761C14.9995 14.647 14.7486 15.184 14.6201 15.7871C14.4541 16.7947 14.2749 17.797 14.0826 18.7941C17.9526 18.7941 21.8226 18.7941 25.6926 18.7941C25.2789 20.7885 24.9207 22.7933 24.6176 24.8082C20.6759 24.8082 16.7342 24.8082 12.7926 24.8082C12.3587 27.0834 11.857 29.3387 11.2876 31.574C11.3859 31.663 11.4576 31.7703 11.5026 31.8962C15.9442 32.0751 20.3875 32.1825 24.8326 32.2184C25.4511 34.2063 26.3827 36.032 27.6276 37.6955C18.9568 37.9462 10.2851 37.9818 1.61256 37.8029C1.17753 37.1192 1.07003 36.3675 1.29006 35.5476C3.09082 26.6341 5.02582 17.7562 7.09506 8.91382C7.39537 8.57654 7.71787 8.29016 8.06256 8.05467Z" fill="#474647"/>
<path opacity="0.965" fill-rule="evenodd" clip-rule="evenodd" d="M81.3774 8.05444C88.7594 8.01864 96.141 8.05444 103.522 8.16184C103.924 8.35493 104.139 8.67712 104.167 9.12839C103.825 10.6239 103.538 12.1274 103.307 13.6389C101.729 13.6032 100.153 13.639 98.5774 13.7463C98.001 14.2176 97.6785 14.8262 97.6099 15.572C96.4478 20.824 95.3372 26.0864 94.2774 31.359C94.1893 31.9121 94.4043 32.2702 94.9224 32.433C96.361 32.4693 97.7944 32.5767 99.2224 32.7551C98.8614 34.2692 98.4673 35.7727 98.0399 37.2657C97.8458 37.5237 97.5951 37.7028 97.2874 37.8027C89.9774 37.9459 82.6674 37.9459 75.3574 37.8027C77.0729 36.341 78.5063 34.6586 79.6574 32.7551C81.2293 32.5767 82.8059 32.4693 84.3874 32.433C84.7187 32.0938 84.9696 31.6999 85.1399 31.2516C86.4557 25.4304 87.6382 19.631 88.6874 13.8537C87.1173 13.6395 85.5405 13.5679 83.9574 13.6389C83.9348 12.8187 83.7558 12.0311 83.4199 11.2763C82.94 10.0512 82.2591 8.97724 81.3774 8.05444Z" fill="#474647"/>
<path fill-rule="evenodd" clip-rule="evenodd" d="M131.903 20.2976C130.643 20.3668 129.425 20.2952 128.248 20.0828C129.823 17.9 131.865 16.3249 134.375 15.3574C134.483 15.3932 134.59 15.429 134.698 15.4648C133.568 16.9716 132.636 18.5825 131.903 20.2976Z" fill="#1F579E"/>
<path fill-rule="evenodd" clip-rule="evenodd" d="M132.547 29.5337C134.482 29.5337 136.417 29.5337 138.352 29.5337C138.352 31.1805 138.352 32.827 138.352 34.4738C136.632 34.4738 134.912 34.4738 133.192 34.4738C132.757 32.8599 132.542 31.2131 132.547 29.5337Z" fill="#1F579E"/>
<path fill-rule="evenodd" clip-rule="evenodd" d="M128.248 37.0512C129.355 36.804 130.502 36.7683 131.688 36.9438C132.309 38.4725 133.097 39.9043 134.053 41.2396C132.954 40.9773 131.951 40.4762 131.043 39.7361C129.997 38.942 129.065 38.047 128.248 37.0512Z" fill="#1F579E"/>
<path fill-rule="evenodd" clip-rule="evenodd" d="M138.353 36.8365C138.423 38.7372 138.351 40.5987 138.138 42.421C136.527 40.8799 135.237 39.09 134.268 37.0513C135.622 36.8373 136.983 36.7656 138.353 36.8365Z" fill="#1F579E"/>
<path opacity="0.94" fill-rule="evenodd" clip-rule="evenodd" d="M30.5782 50.7027C31.0751 50.6612 31.5564 50.7655 32.0222 51.0157C32.2417 51.409 32.3861 51.8609 32.4554 52.3718C32.2875 53.4818 32.1189 54.5947 31.95 55.7101C31.3795 57.9552 30.3686 58.5115 28.9175 57.3792C28.8307 57.0376 28.7585 56.6901 28.7009 56.336C28.8716 54.9982 29.0882 53.6769 29.3507 52.3718C29.5594 51.4784 29.9685 50.922 30.5782 50.7027ZM30.5782 52.1632C30.8189 52.1632 31.0595 52.1632 31.3002 52.1632C31.2333 53.6558 30.9926 55.0816 30.5782 56.4403C30.3422 56.5434 30.1015 56.578 29.8562 56.5446C29.8966 54.9982 30.1372 53.5377 30.5782 52.1632Z" fill="#474647"/>
<path opacity="0.93" fill-rule="evenodd" clip-rule="evenodd" d="M81.9858 50.7027C82.3738 50.6684 82.7589 50.7033 83.141 50.807C83.4539 50.9808 83.6705 51.2937 83.7908 51.7459C83.7788 53.1565 83.6344 54.5475 83.3576 55.9187C83.3182 56.3003 83.1977 56.6132 82.9966 56.8575C83.1335 56.9583 83.2779 56.9929 83.4298 56.9619C83.4047 57.4545 83.3566 57.9412 83.2854 58.4223C82.884 58.3583 82.523 58.1496 82.2024 57.7964C80.529 58.4388 79.9033 57.5346 80.3251 55.0841C80.4695 54.1801 80.6139 53.2758 80.7583 52.3718C81.0613 51.62 81.4705 51.0636 81.9858 50.7027ZM81.9858 52.1631C82.2265 52.1631 82.4671 52.1631 82.7078 52.1631C82.7266 53.1753 82.6061 54.149 82.3468 55.0841C82.1543 54.806 81.9617 54.806 81.7692 55.0841C81.6597 55.5575 81.6838 56.0096 81.8414 56.4403C81.4919 56.6312 81.2994 56.4574 81.2638 55.9187C81.4158 54.6213 81.6565 53.3695 81.9858 52.1631Z" fill="#474647"/>
<path opacity="0.935" fill-rule="evenodd" clip-rule="evenodd" d="M5.69748 50.9116C6.01998 50.9116 6.34248 50.9116 6.66498 50.9116C6.41002 53.1472 6.11056 55.3728 5.76659 57.5881C5.43755 57.7832 5.09202 57.8527 4.72998 57.7967C5.03483 55.4959 5.35732 53.2008 5.69748 50.9116Z" fill="#474647"/>
<path opacity="0.946" fill-rule="evenodd" clip-rule="evenodd" d="M12.6722 50.9116C13.0573 50.9116 13.4423 50.9116 13.8274 50.9116C13.9725 52.0982 14.1409 53.2803 14.3328 54.4585C14.5294 53.2816 14.6979 52.0992 14.8382 50.9116C15.1752 50.9116 15.5121 50.9116 15.8491 50.9116C15.5579 53.1507 15.221 55.3761 14.8382 57.5881C14.5013 57.8662 14.1644 57.8662 13.8274 57.5881C13.5658 56.354 13.3492 55.1022 13.1776 53.8326C12.9851 55.0844 12.7925 56.3363 12.6 57.5881C12.3053 57.7807 11.9924 57.8501 11.6614 57.7967C11.9066 55.4683 12.2436 53.1733 12.6722 50.9116Z" fill="#474647"/>
<path opacity="0.948" fill-rule="evenodd" clip-rule="evenodd" d="M21.6251 50.9116C22.4434 50.9116 23.2616 50.9116 24.0799 50.9116C24.1144 51.322 24.0664 51.7047 23.9355 52.0591C23.4565 52.163 22.9752 52.1979 22.4915 52.1635C22.4203 52.6446 22.3722 53.1313 22.3471 53.6239C22.684 53.6239 23.021 53.6239 23.3579 53.6239C23.3786 53.9916 23.3303 54.3394 23.2135 54.6671C22.8401 54.8716 22.455 54.9411 22.0583 54.8758C21.9692 55.7973 21.8248 56.7014 21.6251 57.5881C21.3012 57.7913 20.9643 57.861 20.6143 57.7967C20.9328 55.495 21.2698 53.2 21.6251 50.9116Z" fill="#474647"/>
<path opacity="0.949" fill-rule="evenodd" clip-rule="evenodd" d="M38.2315 50.9114C39.0032 50.8768 39.7733 50.9116 40.542 51.0157C41.078 51.54 41.2464 52.2703 41.0474 53.2064C40.8416 53.9204 40.5287 54.5115 40.1088 54.9799C40.2442 55.8541 40.3886 56.7233 40.542 57.5879C40.1568 57.866 39.7719 57.866 39.3867 57.5879C39.2282 56.7694 39.1319 55.9348 39.0979 55.0842C38.9535 55.0842 38.8091 55.0842 38.6647 55.0842C38.5684 55.9882 38.4722 56.8925 38.3759 57.7965C37.9793 57.8618 37.5941 57.7923 37.2207 57.5879C37.6315 55.3848 37.9684 53.1595 38.2315 50.9114ZM39.0979 52.1632C39.3867 52.1632 39.6756 52.1632 39.9644 52.1632C40.14 53.37 39.8029 53.9264 38.9535 53.8323C39.039 53.2843 39.0871 52.7278 39.0979 52.1632Z" fill="#474647"/>
<path opacity="0.94" fill-rule="evenodd" clip-rule="evenodd" d="M47.0401 50.9113C47.5214 50.9113 48.0029 50.9113 48.4841 50.9113C48.432 52.1825 48.5042 53.4344 48.7008 54.6668C49.1306 53.4592 49.5399 52.2422 49.9282 51.0156C50.4072 50.9117 50.8885 50.8768 51.3722 50.9113C51.0537 53.2122 50.7168 55.5072 50.3614 57.7964C50.021 57.8304 49.6841 57.7958 49.3506 57.6921C49.6309 56.5016 49.7994 55.2844 49.856 54.0409C49.4314 55.198 49.0465 56.3803 48.7008 57.5877C48.406 57.7803 48.0931 57.8498 47.7621 57.7964C47.7893 56.4636 47.7171 55.1421 47.5455 53.8322C47.353 55.0841 47.1604 56.3359 46.9679 57.5877C46.6732 57.7803 46.3603 57.8498 46.0293 57.7964C46.3435 55.4936 46.6804 53.1986 47.0401 50.9113Z" fill="#474647"/>
<path opacity="0.955" fill-rule="evenodd" clip-rule="evenodd" d="M58.0147 50.9116C58.4479 50.9116 58.8811 50.9116 59.3143 50.9116C59.3023 53.21 59.3505 55.505 59.4587 57.7967C59.1218 57.7967 58.7848 57.7967 58.4479 57.7967C58.4479 57.31 58.4479 56.823 58.4479 56.3363C57.6157 56.0179 57.0862 56.4352 56.8595 57.5881C56.5226 57.8662 56.1855 57.8662 55.8486 57.5881C56.5715 55.3565 57.2935 53.1309 58.0147 50.9116ZM58.1591 53.4153C58.2616 53.9146 58.3579 54.4362 58.4479 54.9801C58.1939 55.1466 57.9532 55.1118 57.7259 54.8758C57.9119 54.4086 58.0563 53.9219 58.1591 53.4153Z" fill="#474647"/>
<path opacity="0.957" fill-rule="evenodd" clip-rule="evenodd" d="M65.5236 50.9116C66.5825 50.9116 67.6415 50.9116 68.7004 50.9116C68.7211 51.2792 68.6728 51.627 68.556 51.9548C68.1911 52.1038 67.8301 52.2427 67.473 52.3721C67.1621 54.1689 66.8973 55.977 66.6788 57.7967C66.2908 57.831 65.9056 57.7961 65.5236 57.6924C65.8913 55.8795 66.1802 54.0366 66.39 52.1635C66.0399 52.2277 65.703 52.158 65.3792 51.9548C65.496 51.627 65.5442 51.2792 65.5236 50.9116Z" fill="#474647"/>
<path opacity="0.94" fill-rule="evenodd" clip-rule="evenodd" d="M74.1878 50.9116C74.5758 50.8774 74.961 50.9123 75.343 51.016C74.9461 53.1869 74.5851 55.3776 74.26 57.5881C73.9039 57.8546 73.5429 57.8546 73.177 57.5881C73.5597 55.3765 73.8966 53.151 74.1878 50.9116Z" fill="#474647"/>
<path opacity="0.94" fill-rule="evenodd" clip-rule="evenodd" d="M89.7833 50.9116C90.1202 50.9116 90.4573 50.9116 90.7942 50.9116C90.6186 52.6319 90.378 54.3358 90.0721 56.0233C90.3822 56.681 90.7432 56.7156 91.1552 56.1276C91.4479 54.3949 91.7127 52.6563 91.9494 50.9116C92.3374 50.8774 92.7225 50.9123 93.1046 51.016C92.8071 52.5618 92.5423 54.1266 92.3104 55.7104C91.8574 57.7471 90.9188 58.4077 89.4945 57.6924C89.326 57.5881 89.2057 57.4143 89.1335 57.1708C89.0372 56.5449 89.0372 55.919 89.1335 55.2931C89.3598 53.8326 89.5764 52.3721 89.7833 50.9116Z" fill="#474647"/>
<path opacity="0.958" fill-rule="evenodd" clip-rule="evenodd" d="M98.7364 50.9114C99.6522 50.8768 100.567 50.9114 101.48 51.0157C101.349 51.3702 101.301 51.7529 101.336 52.1633C100.758 52.1633 100.18 52.1633 99.6028 52.1633C99.6291 52.5995 99.5809 53.0168 99.4584 53.4151C99.8318 53.6196 100.217 53.689 100.614 53.6237C100.634 53.9914 100.586 54.3392 100.469 54.6669C100.055 54.8147 99.6461 54.9538 99.2418 55.0842C99.1462 55.5668 99.074 56.0536 99.0252 56.5447C99.5547 56.5447 100.084 56.5447 100.614 56.5447C100.566 56.962 100.517 57.3793 100.469 57.7965C99.5497 57.8654 98.635 57.7957 97.7256 57.5879C98.1364 55.3849 98.4733 53.1595 98.7364 50.9114Z" fill="#474647"/>
</svg>
