<svg width="60" height="58" viewBox="0 0 60 58" fill="none" xmlns="http://www.w3.org/2000/svg">
<path opacity="0.995" fill-rule="evenodd" clip-rule="evenodd" d="M31.161 0.0024958C41.649 -0.120561 49.8507 4.30689 55.7659 13.2849C60.4895 21.6351 61.2609 30.3821 58.0798 39.5257C53.6961 49.9433 46.1115 55.9097 35.3261 57.4245C23.5508 57.5055 11.7755 57.5325 0 57.5055C1.96284 45.8418 3.94249 34.1792 5.9391 22.5177C8.63978 11.6368 15.0932 4.48264 25.299 1.05537C27.2497 0.543575 29.2037 0.192628 31.161 0.0024958Z" fill="#ABCA4D"/>
<path fill-rule="evenodd" clip-rule="evenodd" d="M40.571 26.0812C41.6737 25.9205 42.8049 25.8666 43.9648 25.9192C44.0114 25.5047 43.9598 25.1267 43.8105 24.7854C43.6669 23.6259 43.3584 22.5189 42.8849 21.4648C41.6004 21.3838 40.3149 21.3569 39.0284 21.3838C39.3327 22.7707 39.5385 24.1745 39.6454 25.5953C38.9499 25.5613 38.2814 25.3993 37.64 25.1093C37.348 23.8922 37.0395 22.6774 36.7144 21.4648C35.1212 21.3838 33.5272 21.3569 31.9323 21.3838C31.9323 22.8955 31.9323 24.4075 31.9323 25.9192C32.4491 25.8925 32.9632 25.9196 33.4749 26.0002C33.7956 26.5386 34.0528 27.1056 34.2462 27.701C33.5133 27.9668 32.742 28.1288 31.9323 28.1869C31.9323 29.7528 31.9323 31.3185 31.9323 32.8844C33.4759 32.8575 35.0185 32.8844 36.5602 32.9654C37.0555 33.8436 37.4669 34.7616 37.7943 35.719C37.2349 37.1637 36.515 38.5135 35.6346 39.7685C36.7572 39.4219 37.7855 38.855 38.7199 38.0677C39.1553 38.6567 39.5152 39.3046 39.7997 40.0115C34.6302 43.6551 29.231 44.06 23.6021 41.2264C17.7553 37.5603 15.1071 32.1339 15.6576 24.9473C16.6791 18.7451 19.9443 14.3986 25.4533 11.9079C32.4958 9.65907 38.3836 11.4679 43.1163 17.3343C45.2512 20.361 46.2539 23.7626 46.1245 27.539C44.2861 27.0124 42.435 26.5265 40.571 26.0812Z" fill="#FEFEFD"/>
<path fill-rule="evenodd" clip-rule="evenodd" d="M31.9324 13.2852C33.5552 14.9072 34.8407 16.797 35.7889 18.9545C34.5075 19.1161 33.222 19.1701 31.9324 19.1164C31.9324 17.1727 31.9324 15.2289 31.9324 13.2852Z" fill="#ABCA4F"/>
<path fill-rule="evenodd" clip-rule="evenodd" d="M29.7726 19.1162C28.5101 19.169 27.276 19.1149 26.0703 18.9542C26.9741 16.9492 28.1826 15.1675 29.6955 13.6089C29.7726 15.4438 29.7984 17.2797 29.7726 19.1162Z" fill="#ABCA4E"/>
<path fill-rule="evenodd" clip-rule="evenodd" d="M25.916 14.095C26.0783 14.0708 26.2326 14.0978 26.3788 14.176C25.2572 15.6669 24.3316 17.2867 23.6021 19.0354C22.4194 19.1435 21.2368 19.1435 20.0541 19.0354C21.6405 16.8832 23.5944 15.2363 25.916 14.095Z" fill="#ACCA50"/>
<path fill-rule="evenodd" clip-rule="evenodd" d="M41.4966 18.9543C40.3805 19.1667 39.2493 19.1667 38.1028 18.9543C37.5009 17.2854 36.6782 15.7466 35.6346 14.3379C36.3373 14.4618 37.0057 14.7318 37.6401 15.1478C39.1503 16.1668 40.4359 17.4356 41.4966 18.9543Z" fill="#ADCB51"/>
<path fill-rule="evenodd" clip-rule="evenodd" d="M26.0704 18.9541C27.2761 19.1148 28.5102 19.1689 29.7727 19.1161C28.5114 19.3301 27.226 19.3301 25.9161 19.1161C25.9353 19.0178 25.9866 18.9638 26.0704 18.9541Z" fill="#EAF1D2"/>
<path fill-rule="evenodd" clip-rule="evenodd" d="M38.1028 18.9541C39.2493 19.1665 40.3805 19.1665 41.4966 18.9541C41.5803 18.9638 41.6317 19.0178 41.6508 19.1161C41.0595 19.17 40.4681 19.2241 39.8768 19.2781C39.2244 19.2764 38.6331 19.1684 38.1028 18.9541Z" fill="#E9F1D2"/>
<path fill-rule="evenodd" clip-rule="evenodd" d="M18.8201 21.3836C20.158 21.3567 21.495 21.3836 22.8309 21.4646C22.3467 22.9014 22.0895 24.3861 22.0596 25.9191C20.6199 25.9191 19.18 25.9191 17.7402 25.9191C17.8107 24.327 18.1708 22.815 18.8201 21.3836Z" fill="#ACCA50"/>
<path fill-rule="evenodd" clip-rule="evenodd" d="M24.9906 21.3838C26.5845 21.3838 28.1787 21.3838 29.7727 21.3838C29.7727 22.8956 29.7727 24.4075 29.7727 25.9192C27.9215 25.9192 26.0704 25.9192 24.2192 25.9192C24.2799 24.3689 24.537 22.8572 24.9906 21.3838Z" fill="#ACCA4F"/>
<path fill-rule="evenodd" clip-rule="evenodd" d="M43.8105 24.7852C43.9598 25.1264 44.0114 25.5045 43.9648 25.919C42.8049 25.8664 41.6737 25.9203 40.571 26.081C40.4872 26.0713 40.4359 26.0173 40.4167 25.919C41.5433 25.7575 42.6747 25.7034 43.8105 25.757C43.8105 25.4331 43.8105 25.1091 43.8105 24.7852Z" fill="#C2D87E"/>
<path fill-rule="evenodd" clip-rule="evenodd" d="M35.1719 26.0814C35.3949 25.9011 35.6521 25.8741 35.9432 26.0004C40.8796 27.4853 45.816 28.97 50.7524 30.4549C49.6037 31.464 48.421 32.4359 47.2043 33.3705C48.602 34.8867 50.0932 36.2905 51.678 37.582C51.845 37.7221 51.8706 37.8841 51.7551 38.068C50.9247 39.0201 50.1276 39.992 49.364 40.9836C47.7649 39.547 46.1452 38.1431 44.5048 36.7721C43.6705 38.2533 42.8736 39.7652 42.1137 41.3076C39.7999 36.2324 37.486 31.1571 35.1719 26.0814Z" fill="#FEFEFD"/>
<path fill-rule="evenodd" clip-rule="evenodd" d="M34.2463 27.7012C34.3858 27.816 34.4371 27.978 34.4006 28.1871C33.5779 28.1871 32.7551 28.1871 31.9324 28.1871C32.7421 28.129 33.5134 27.967 34.2463 27.7012Z" fill="#EAF2D3"/>
<path fill-rule="evenodd" clip-rule="evenodd" d="M17.7402 28.187C19.18 28.187 20.6199 28.187 22.0596 28.187C22.0813 29.7815 22.287 31.3474 22.6766 32.8844C21.3912 32.8844 20.1055 32.8844 18.8201 32.8844C18.2911 31.3646 17.9312 29.7987 17.7402 28.187Z" fill="#ABCA4E"/>
<path fill-rule="evenodd" clip-rule="evenodd" d="M24.2192 28.187C26.0704 28.187 27.9215 28.187 29.7727 28.187C29.7727 29.7529 29.7727 31.3186 29.7727 32.8844C28.1272 32.8844 26.4818 32.8844 24.8363 32.8844C24.4665 31.344 24.2607 29.7783 24.2192 28.187Z" fill="#ABCA4D"/>
<path fill-rule="evenodd" clip-rule="evenodd" d="M20.2084 35.3143C21.2606 35.1272 22.3404 35.1003 23.4479 35.2333C24.0605 36.7904 24.8318 38.2483 25.7618 39.6068C24.7679 39.301 23.8423 38.815 22.9851 38.149C21.9776 37.28 21.052 36.3351 20.2084 35.3143Z" fill="#ADCB51"/>
<path fill-rule="evenodd" clip-rule="evenodd" d="M25.7618 35.3139C27.0706 35.153 28.4076 35.0991 29.7727 35.1519C29.7727 37.0417 29.7727 38.9314 29.7727 40.8212C29.6104 40.8454 29.4561 40.8185 29.3099 40.7402C27.9522 39.0474 26.7695 37.2385 25.7618 35.3139Z" fill="#ACCA4F"/>
<path fill-rule="evenodd" clip-rule="evenodd" d="M31.9324 35.1523C31.8818 37.0171 31.9331 38.8529 32.0866 40.6597C32.0774 40.7476 32.026 40.8016 31.9324 40.8217C31.7281 38.9059 31.7281 37.0163 31.9324 35.1523Z" fill="#E9F1D1"/>
<path fill-rule="evenodd" clip-rule="evenodd" d="M31.9323 35.1522C33.2188 35.1253 34.5043 35.1522 35.7888 35.2332C34.8196 37.2484 33.5855 39.0572 32.0865 40.6595C31.9331 38.8528 31.8817 37.0169 31.9323 35.1522Z" fill="#ACCA4F"/>
</svg>
