<svg width="60" height="56" viewBox="0 0 60 56" fill="none" xmlns="http://www.w3.org/2000/svg">
<path opacity="0.996" fill-rule="evenodd" clip-rule="evenodd" d="M31.1762 3.42827e-05C43.5222 -0.0159171 52.3966 5.53466 57.7994 16.6518C61.7316 26.9723 60.3941 36.5171 53.7866 45.2865C48.9102 51.0527 42.7109 54.3468 35.1889 55.1686C23.4594 55.2464 11.7298 55.2724 0 55.2464C1.94712 43.9856 3.92773 32.7289 5.94199 21.4761C8.46927 11.7171 14.4113 5.05119 23.768 1.47846C26.2033 0.698084 28.6727 0.205286 31.1762 3.42827e-05Z" fill="#D1385B"/>
<path fill-rule="evenodd" clip-rule="evenodd" d="M30.7131 16.4962C34.0908 16.4528 37.2289 17.3087 40.1277 19.064C43.9812 21.549 47.1707 24.7133 49.6966 28.557C46.5841 33.3428 42.4684 36.9739 37.3496 39.4507C32.4122 41.3407 27.7306 40.822 23.3049 37.8944C19.599 35.4026 16.5122 32.2901 14.0447 28.557C17.2112 23.6418 21.4299 19.9587 26.7003 17.5078C28.0233 17.0186 29.3608 16.6814 30.7131 16.4962Z" fill="#FEFCFC"/>
<path fill-rule="evenodd" clip-rule="evenodd" d="M30.5588 19.2972C36.106 19.0719 39.5786 21.6655 40.9766 27.0784C41.3259 32.4289 38.985 35.9304 33.9543 37.583C29.2748 38.3748 25.8022 36.6889 23.5365 32.5252C21.7 27.4987 22.9605 23.4783 27.3178 20.4644C28.3676 19.9304 29.4479 19.5414 30.5588 19.2972Z" fill="#D23E5E"/>
<path fill-rule="evenodd" clip-rule="evenodd" d="M30.2502 21.0089C31.4825 20.938 32.6916 21.0416 33.8771 21.3202C33.98 22.8764 33.98 24.4327 33.8771 25.9889C31.8065 24.8026 29.7743 23.5576 27.7808 22.2539C28.5685 21.7483 29.3917 21.3334 30.2502 21.0089Z" fill="#FEFCFC"/>
<path fill-rule="evenodd" clip-rule="evenodd" d="M35.1889 21.7871C37.2249 22.8296 38.5626 24.4637 39.2017 26.6893C37.894 27.5307 36.5565 28.3347 35.1889 29.1014C35.1786 26.679 35.1786 24.2408 35.1889 21.7871Z" fill="#FEFCFC"/>
<path fill-rule="evenodd" clip-rule="evenodd" d="M26.546 23.0322C27.9769 23.7539 29.3659 24.558 30.7131 25.4444C28.6803 26.6509 26.6224 27.8181 24.5396 28.9459C24.2944 27.7652 24.4229 26.624 24.9255 25.5222C25.4304 24.6568 25.9706 23.8267 26.546 23.0322Z" fill="#FEFCFC"/>
<path fill-rule="evenodd" clip-rule="evenodd" d="M21.1442 23.8105C21.228 23.8199 21.2794 23.8717 21.2985 23.9662C20.396 26.228 20.1645 28.5624 20.604 30.9692C20.8473 31.7537 21.053 32.5318 21.2214 33.3036C19.561 31.8975 18.0948 30.3153 16.8228 28.5571C18.1055 26.8242 19.5459 25.242 21.1442 23.8105Z" fill="#D23E5F"/>
<path fill-rule="evenodd" clip-rule="evenodd" d="M42.2885 23.6548C43.9565 25.1555 45.4999 26.7895 46.9186 28.5569C45.5055 30.2929 43.9879 31.927 42.3656 33.4591C42.9274 31.8907 43.2617 30.2566 43.3688 28.5569C43.385 26.8334 43.025 25.1993 42.2885 23.6548Z" fill="#D23D5E"/>
<path fill-rule="evenodd" clip-rule="evenodd" d="M28.3981 28.0122C28.6029 30.4252 28.6029 32.8633 28.3981 35.3265C26.4536 34.2216 25.1675 32.5875 24.5397 30.4244C25.8312 29.6182 27.1174 28.8141 28.3981 28.0122Z" fill="#FEFDFD"/>
<path fill-rule="evenodd" clip-rule="evenodd" d="M39.2017 28.0122C39.4864 30.3904 38.7404 32.4136 36.9638 34.0815C35.6391 33.297 34.3273 32.4929 33.0282 31.6694C35.1212 30.4854 37.1789 29.2664 39.2017 28.0122Z" fill="#FEFBFC"/>
<path fill-rule="evenodd" clip-rule="evenodd" d="M29.7871 31.1245C31.8827 32.3034 33.9405 33.5483 35.9606 34.8595C34.0555 36.0827 31.9977 36.4198 29.7871 35.871C29.7461 34.303 29.7461 32.7207 29.7871 31.1245Z" fill="#FEFCFC"/>
</svg>
