<svg width="60" height="57" viewBox="0 0 60 57" fill="none" xmlns="http://www.w3.org/2000/svg">
<path opacity="0.998" fill-rule="evenodd" clip-rule="evenodd" d="M31.161 0.0024363C41.649 -0.117687 49.8507 4.20423 55.7659 12.9682C60.4895 21.1194 61.2609 29.6578 58.0798 38.5835C53.6565 48.7994 46.0205 54.6234 35.1718 56.0556C23.448 56.1347 11.7241 56.1611 0 56.1347C1.96284 44.749 3.94249 33.3644 5.9391 21.981C8.10526 12.9622 13.273 6.45295 21.4425 2.45328C24.57 1.08046 27.8095 0.263507 31.161 0.0024363Z" fill="#E04C19"/>
<path fill-rule="evenodd" clip-rule="evenodd" d="M31.6238 11.0708C34.3057 11.0472 36.7223 11.8641 38.8742 13.5217C44.4671 17.7396 48.298 23.2474 50.3667 30.0451C50.7533 31.7174 50.6505 33.3512 50.0582 34.9468C49.0869 35.9308 47.9815 36.6951 46.7415 37.2395C46.2787 37.345 45.816 37.345 45.3532 37.2395C43.8132 36.1319 42.8105 34.6298 42.3451 32.7331C42.1535 31.9118 42.3077 31.1741 42.8078 30.5194C43.3621 30.0637 43.902 29.5894 44.4276 29.0964C44.595 28.5789 44.6207 28.0518 44.5047 27.5152C42.8824 24.06 40.6455 21.0821 37.7943 18.5815C37.1794 18.1601 36.511 18.002 35.7889 18.1071C34.3183 19.8388 32.673 20.0496 30.8525 18.7396C30.1017 18.023 29.4075 17.2586 28.77 16.4469C28.2663 15.4937 28.2663 14.545 28.77 13.6007C29.6315 12.6238 30.5829 11.7805 31.6238 11.0708Z" fill="#FEFDFD"/>
<path fill-rule="evenodd" clip-rule="evenodd" d="M22.2138 22.6135C20.746 22.6652 19.3062 22.6125 17.8944 22.4553C19.8795 19.3845 22.6047 17.408 26.0703 16.5259C24.563 18.4122 23.2774 20.4415 22.2138 22.6135Z" fill="#FEFBFA"/>
<path fill-rule="evenodd" clip-rule="evenodd" d="M29.0013 22.6136C27.3282 22.6655 25.6827 22.6127 24.0649 22.4555C24.792 20.6585 25.8204 19.0773 27.1502 17.7119C27.6556 18.4676 28.2468 19.1527 28.9242 19.7675C29.0012 20.7148 29.0269 21.6635 29.0013 22.6136Z" fill="#FEFDFC"/>
<path fill-rule="evenodd" clip-rule="evenodd" d="M36.406 20.4001C36.4672 20.238 36.57 20.2116 36.7145 20.321C37.4345 21.0589 38.1543 21.7967 38.8742 22.5347C38.4628 22.6401 38.0515 22.6401 37.6401 22.5347C37.283 21.774 36.8716 21.0624 36.406 20.4001Z" fill="#FDF3F0"/>
<path fill-rule="evenodd" clip-rule="evenodd" d="M34.8633 21.0324C35.0169 21.0188 35.1454 21.0716 35.249 21.1905C35.4608 21.6509 35.6922 22.099 35.9431 22.5345C34.247 22.6136 32.5501 22.64 30.8525 22.6136C30.8036 22.1278 30.8549 21.6535 31.0067 21.1905C32.3315 21.8631 33.617 21.8105 34.8633 21.0324Z" fill="#FEFAF9"/>
<path fill-rule="evenodd" clip-rule="evenodd" d="M17.8945 22.4556C19.3063 22.6127 20.746 22.6654 22.2138 22.6137C20.7471 22.8229 19.2559 22.8229 17.7402 22.6137C17.7594 22.5177 17.8107 22.4651 17.8945 22.4556Z" fill="#E87953"/>
<path fill-rule="evenodd" clip-rule="evenodd" d="M24.0649 22.4556C25.6827 22.6127 27.3282 22.6655 29.0013 22.6137C27.3291 22.823 25.6322 22.823 23.9106 22.6137C23.9298 22.5177 23.9811 22.4651 24.0649 22.4556Z" fill="#E77851"/>
<path fill-rule="evenodd" clip-rule="evenodd" d="M20.517 29.5707C18.8714 29.5707 17.2261 29.5707 15.5806 29.5707C15.5806 29.3071 15.5806 29.0437 15.5806 28.7801C15.5968 27.2116 16.008 25.7623 16.8147 24.4318C18.3599 24.3003 19.9025 24.3265 21.4425 24.5109C20.9384 26.1568 20.6299 27.8433 20.517 29.5707Z" fill="#FEFDFD"/>
<path fill-rule="evenodd" clip-rule="evenodd" d="M23.1394 24.353C25.0935 24.353 27.0474 24.353 29.0014 24.353C29.0014 26.145 29.0014 27.9371 29.0014 29.7291C26.7388 29.7291 24.4764 29.7291 22.2139 29.7291C22.227 27.8832 22.5355 26.0911 23.1394 24.353Z" fill="#FEFCFB"/>
<path fill-rule="evenodd" clip-rule="evenodd" d="M31.0067 24.353C31.0067 26.0923 31.0067 27.8316 31.0067 29.571C32.3951 29.571 33.7834 29.571 35.1718 29.571C35.1718 29.6236 35.1718 29.6764 35.1718 29.7291C33.7321 29.7291 32.2922 29.7291 30.8524 29.7291C30.8018 27.9088 30.8532 26.1167 31.0067 24.353Z" fill="#F6D1C5"/>
<path fill-rule="evenodd" clip-rule="evenodd" d="M31.0067 24.3527C32.912 24.3002 34.8147 24.3528 36.7144 24.5108C37.2415 25.7759 37.5501 27.0935 37.64 28.4638C37.64 28.8326 37.64 29.2017 37.64 29.5706C36.8173 29.5706 35.9945 29.5706 35.1718 29.5706C33.7834 29.5706 32.3951 29.5706 31.0067 29.5706C31.0067 27.8313 31.0067 26.092 31.0067 24.3527Z" fill="#FEFEFE"/>
<path fill-rule="evenodd" clip-rule="evenodd" d="M38.4114 24.5109C39.0567 24.3036 39.7251 24.3036 40.4168 24.5109C41.2649 25.6437 41.9847 26.8558 42.5765 28.1477C42.1863 28.6184 41.7749 29.0928 41.3424 29.5707C40.6817 29.7276 40.0132 29.7804 39.337 29.7289C39.3701 27.9067 39.0616 26.1674 38.4114 24.5109Z" fill="#FEFAF9"/>
<path fill-rule="evenodd" clip-rule="evenodd" d="M15.5804 28.7803C15.5804 29.0439 15.5804 29.3073 15.5804 29.5709C17.2259 29.5709 18.8713 29.5709 20.5168 29.5709C18.8476 29.7282 17.1507 29.7809 15.4262 29.729C15.3807 29.3756 15.4322 29.0594 15.5804 28.7803Z" fill="#F0A88F"/>
<path fill-rule="evenodd" clip-rule="evenodd" d="M37.6401 28.4639C37.7902 28.8509 37.8415 29.2726 37.7943 29.7288C36.9201 29.7288 36.0461 29.7288 35.1719 29.7288C35.1719 29.6762 35.1719 29.6234 35.1719 29.5707C35.9946 29.5707 36.8174 29.5707 37.6401 29.5707C37.6401 29.2018 37.6401 28.8328 37.6401 28.4639Z" fill="#EFA186"/>
<path fill-rule="evenodd" clip-rule="evenodd" d="M21.2882 36.5281C19.8764 36.6852 18.4367 36.7379 16.9689 36.6862C16.8338 36.7069 16.7309 36.6542 16.6604 36.5281C15.9586 34.9157 15.5472 33.2291 15.4263 31.4683C17.1232 31.4683 18.82 31.4683 20.5169 31.4683C20.6147 33.1813 20.8717 34.868 21.2882 36.5281Z" fill="#FEFDFC"/>
<path fill-rule="evenodd" clip-rule="evenodd" d="M22.2138 31.4683C24.4764 31.4683 26.7388 31.4683 29.0014 31.4683C29.0014 33.2602 29.0014 35.0523 29.0014 36.8443C27.0447 36.8968 25.0907 36.8441 23.1394 36.6862C22.5159 35.0065 22.2074 33.2672 22.2138 31.4683Z" fill="#FEFBFA"/>
<path fill-rule="evenodd" clip-rule="evenodd" d="M30.8524 31.4683C33.115 31.4683 35.3774 31.4683 37.64 31.4683C37.6878 33.3012 37.3793 35.0669 36.7144 36.7652C34.7611 36.8443 32.8071 36.8707 30.8524 36.8443C30.8524 35.0523 30.8524 33.2602 30.8524 31.4683Z" fill="#FEFBFA"/>
<path fill-rule="evenodd" clip-rule="evenodd" d="M39.4911 31.4683C39.7483 31.4683 40.0053 31.4683 40.2624 31.4683C40.2138 32.0803 40.2652 32.6602 40.4167 33.2076C40.6706 34.4115 41.1334 35.5183 41.8051 36.5281C40.7541 36.6848 39.6742 36.7376 38.5656 36.6862C39.0189 34.9568 39.3275 33.2175 39.4911 31.4683Z" fill="#FEFAF9"/>
<path fill-rule="evenodd" clip-rule="evenodd" d="M39.4912 31.468C39.7635 31.316 40.072 31.2632 40.4168 31.3099C40.4168 31.9423 40.4168 32.5748 40.4168 33.2073C40.2653 32.6599 40.2139 32.0801 40.2625 31.468C40.0054 31.468 39.7484 31.468 39.4912 31.468Z" fill="#EB8866"/>
<path fill-rule="evenodd" clip-rule="evenodd" d="M21.2882 36.5278C21.372 36.5373 21.4234 36.59 21.4425 36.686C19.9269 36.8951 18.4356 36.8951 16.9689 36.686C18.4367 36.7377 19.8764 36.685 21.2882 36.5278Z" fill="#E87953"/>
<path fill-rule="evenodd" clip-rule="evenodd" d="M41.8051 36.5278C41.8888 36.5373 41.9402 36.59 41.9593 36.686C40.8039 36.8945 39.6727 36.8945 38.5656 36.686C39.6742 36.7373 40.7541 36.6845 41.8051 36.5278Z" fill="#E87B55"/>
<path fill-rule="evenodd" clip-rule="evenodd" d="M30.8524 38.5833C32.5761 38.3739 34.3244 38.3739 36.0973 38.5833C36.0782 38.6793 36.0268 38.7319 35.9431 38.7414C34.3253 38.5842 32.6798 38.5314 31.0067 38.5833C30.9553 38.5833 30.9038 38.5833 30.8524 38.5833Z" fill="#E87A54"/>
<path fill-rule="evenodd" clip-rule="evenodd" d="M17.7402 38.7419C19.207 38.5327 20.6982 38.5327 22.2138 38.7419C23.1831 40.8132 24.3658 42.737 25.7619 44.5132C23.3633 43.9291 21.2807 42.7432 19.5143 40.9555C18.8856 40.2337 18.2942 39.4958 17.7402 38.7419Z" fill="#FEFBFB"/>
<path fill-rule="evenodd" clip-rule="evenodd" d="M23.9106 38.5835C25.6075 38.5835 27.3044 38.5835 29.0013 38.5835C29.0013 40.7972 29.0013 43.0108 29.0013 45.2245C28.7255 45.2696 28.4683 45.2169 28.23 45.0664C26.3677 43.1979 24.9279 41.037 23.9106 38.5835Z" fill="#FEFDFD"/>
<path fill-rule="evenodd" clip-rule="evenodd" d="M30.8524 38.5835C30.9038 38.5835 30.9553 38.5835 31.0067 38.5835C31.0067 40.7445 31.0067 42.9054 31.0067 45.0664C31.2123 45.0664 31.4181 45.0664 31.6237 45.0664C31.4048 45.2167 31.1478 45.2694 30.8524 45.2245C30.8524 43.0108 30.8524 40.7972 30.8524 38.5835Z" fill="#F6CEC1"/>
<path fill-rule="evenodd" clip-rule="evenodd" d="M31.0067 38.5832C32.6798 38.5314 34.3254 38.5842 35.9431 38.7414C34.9225 41.1566 33.4828 43.2648 31.6238 45.0661C31.4181 45.0661 31.2123 45.0661 31.0067 45.0661C31.0067 42.9051 31.0067 40.7443 31.0067 38.5832Z" fill="#FEFDFD"/>
<path fill-rule="evenodd" clip-rule="evenodd" d="M37.7942 38.5836C39.2377 38.5311 40.6774 38.5839 42.1136 38.7417C40.1464 41.724 37.4726 43.6478 34.0919 44.5131C35.6548 42.7602 36.8889 40.7837 37.7942 38.5836Z" fill="#FEFBFA"/>
</svg>
