<svg width="60" height="64" viewBox="0 0 60 64" fill="none" xmlns="http://www.w3.org/2000/svg">
<path opacity="0.995" fill-rule="evenodd" clip-rule="evenodd" d="M31.1762 3.93826e-05C43.5222 -0.018285 52.3966 6.358 57.7994 19.1289C61.7316 30.9845 60.3941 41.9494 53.7866 52.0233C48.9102 58.6473 42.7109 62.4314 35.1889 63.3755C23.4594 63.4649 11.7298 63.4947 0 63.4649C1.94712 50.529 3.92773 37.5977 5.94199 24.6709C8.46927 13.4601 14.4113 5.8026 23.768 1.69839C26.2033 0.801931 28.6727 0.235825 31.1762 3.93826e-05Z" fill="#F08828"/>
<path fill-rule="evenodd" clip-rule="evenodd" d="M38.1213 18.9499C42.3355 18.3501 45.3193 20.2569 47.0729 24.6707C48.0753 24.848 48.8212 25.4439 49.3107 26.4584C49.4137 29.9744 49.4137 33.4902 49.3107 37.0061C49.2172 37.551 48.9857 37.998 48.6162 38.3469C46.4861 39.3679 44.2739 40.0235 41.9797 40.3134C36.6873 40.7498 31.3885 40.8691 26.083 40.671C23.3225 40.4613 20.6472 39.8059 18.0574 38.7045C17.3399 38.2656 16.9025 37.5803 16.7455 36.6486C16.6426 33.4902 16.6426 30.3319 16.7455 27.1735C16.8326 26.5251 17.0641 25.9591 17.4401 25.4752C19.1994 24.4887 21.0514 23.8331 22.9962 23.5087C26.4813 23.0256 29.9797 22.7871 33.4912 22.7936C34.6794 20.9066 36.2228 19.6255 38.1213 18.9499Z" fill="#FFFDFC"/>
<path fill-rule="evenodd" clip-rule="evenodd" d="M38.893 22.5253C42.5488 22.3802 44.3237 24.4062 44.2177 28.6037C43.4267 31.6618 41.6518 33.0026 38.893 32.6261C36.4082 31.6688 35.302 29.6724 35.5748 26.6372C36.0175 24.5451 37.1237 23.1745 38.893 22.5253Z" fill="#F0892A"/>
<path fill-rule="evenodd" clip-rule="evenodd" d="M21.1443 27.5312C24.2824 27.5312 27.4207 27.5312 30.5588 27.5312C30.6002 27.9995 30.5488 28.4464 30.4045 28.8721C27.3178 28.9913 24.231 28.9913 21.1443 28.8721C20.9469 28.4255 20.9469 27.9785 21.1443 27.5312Z" fill="#F08828"/>
<path fill-rule="evenodd" clip-rule="evenodd" d="M21.1443 30.749C24.2315 30.7191 27.3182 30.749 30.4045 30.8384C30.5488 31.264 30.6002 31.711 30.5589 32.1792C27.3692 32.1792 24.1796 32.1792 20.9899 32.1792C20.9558 31.6824 21.0072 31.2056 21.1443 30.749Z" fill="#F08828"/>
<path fill-rule="evenodd" clip-rule="evenodd" d="M21.1443 34.146C24.2824 34.146 27.4207 34.146 30.5588 34.146C30.6002 34.6142 30.5488 35.0611 30.4045 35.4868C27.3178 35.606 24.231 35.606 21.1443 35.4868C20.9469 35.0402 20.9469 34.5933 21.1443 34.146Z" fill="#F08828"/>
<path fill-rule="evenodd" clip-rule="evenodd" d="M47.8446 39.8668C47.8539 39.7697 47.9053 39.7102 47.9989 39.688C48.2028 41.206 48.2028 42.6957 47.9989 44.1573C48.0493 42.6943 47.9977 41.2641 47.8446 39.8668Z" fill="#F8C393"/>
<path fill-rule="evenodd" clip-rule="evenodd" d="M17.5945 39.688C18.7769 40.2844 20.0116 40.7015 21.2986 40.9394C20.7916 42.2037 20.2256 43.4253 19.6009 44.6043C19.0865 44.7235 18.5719 44.7235 18.0575 44.6043C17.9803 44.5149 17.9032 44.4255 17.826 44.3361C17.6084 42.8015 17.5312 41.2523 17.5945 39.688Z" fill="#FFFAF7"/>
<path fill-rule="evenodd" clip-rule="evenodd" d="M47.8446 39.8667C47.9977 41.264 48.0493 42.6942 47.999 44.1573C47.9291 44.3285 47.8263 44.4776 47.6903 44.6042C47.1046 44.7539 46.5388 44.6943 45.9926 44.4254C45.4584 43.2774 44.944 42.1153 44.4492 40.9393C45.6151 40.7259 46.7468 40.3683 47.8446 39.8667Z" fill="#FEFDFB"/>
</svg>
