<svg width="60" height="52" viewBox="0 0 60 52" fill="none" xmlns="http://www.w3.org/2000/svg">
<path opacity="0.996" fill-rule="evenodd" clip-rule="evenodd" d="M31.1815 2.55257e-05C43.531 -0.0132606 52.4069 5.16001 57.8093 15.5198C61.1766 23.5312 60.662 31.3152 56.2657 38.872C51.4174 46.2177 44.3938 50.3997 35.195 51.4184C23.4635 51.4909 11.7318 51.5151 0 51.4909C1.93094 40.9926 3.91189 30.5011 5.94301 20.0162C8.54513 10.7539 14.6425 4.49279 24.2351 1.23291C26.5285 0.600221 28.844 0.189265 31.1815 2.55257e-05Z" fill="#3AB8BF"/>
<path fill-rule="evenodd" clip-rule="evenodd" d="M28.8661 14.2143C32.5355 14.0036 35.2625 15.3815 37.0474 18.3481C38.7298 18.2386 40.3249 18.5287 41.8327 19.2184C42.6281 19.8677 43.1684 20.6655 43.4535 21.6116C43.4799 22.3416 43.5571 23.0668 43.6851 23.7873C48.5073 26.8371 48.9703 30.3907 45.0744 34.4481C44.7057 34.718 44.2942 34.9113 43.8394 35.0283C36.7387 35.125 29.638 35.125 22.5372 35.0283C18.5515 33.461 16.9821 30.681 17.8291 26.6882C18.4469 24.8026 19.6818 23.4004 21.5338 22.4819C21.6373 17.821 24.0815 15.0652 28.8661 14.2143Z" fill="#FEFEFE"/>
</svg>
