<svg width="60" height="56" viewBox="0 0 60 56" fill="none" xmlns="http://www.w3.org/2000/svg">
<path opacity="0.997" fill-rule="evenodd" clip-rule="evenodd" d="M31.1756 2.75083e-05C43.5226 -0.0142905 52.3969 5.56079 57.7983 16.7252C61.1805 25.3636 60.6659 33.7523 56.2549 41.8912C51.4076 49.8074 44.3854 54.3143 35.1883 55.4121C23.459 55.4902 11.7296 55.5163 0 55.4902C1.93057 44.1765 3.91114 32.8701 5.94188 21.5709C8.54349 11.5891 14.6397 4.84174 24.2305 1.32867C26.5235 0.64684 28.8385 0.203966 31.1756 2.75083e-05Z" fill="#5061A9"/>
<path fill-rule="evenodd" clip-rule="evenodd" d="M22.8415 15.1621C26.9059 15.136 30.9702 15.1621 35.0339 15.2403C35.214 15.4227 35.394 15.605 35.5741 15.7874C35.6255 18.2363 35.677 20.685 35.7284 23.134C35.9086 23.5247 36.1914 23.8113 36.5773 23.9937C38.9437 24.0457 41.3103 24.0979 43.6767 24.15C43.8975 24.2227 44.0775 24.353 44.2168 24.5408C44.3198 29.8553 44.3198 35.1699 44.2168 40.4844C43.9503 41.4837 43.3072 42.0308 42.2877 42.1257C35.857 42.2299 29.4265 42.2299 22.9959 42.1257C22.0272 41.8221 21.4355 41.1708 21.221 40.1718C21.1181 32.4605 21.1181 24.7491 21.221 17.0379C21.4432 16.1113 21.9834 15.486 22.8415 15.1621Z" fill="#FCFDFD"/>
<path fill-rule="evenodd" clip-rule="evenodd" d="M37.5032 15.9435C37.3495 18.0521 37.2981 20.1882 37.3489 22.3522C37.1697 20.1387 37.1441 17.8983 37.2717 15.6309C37.3824 15.7159 37.4595 15.8202 37.5032 15.9435Z" fill="#D1D6E9"/>
<path fill-rule="evenodd" clip-rule="evenodd" d="M37.5032 15.9438C39.6329 18.0225 41.742 20.1327 43.8309 22.2744C41.6709 22.3526 39.5102 22.3787 37.3489 22.3526C37.2981 20.1886 37.3495 18.0525 37.5032 15.9438Z" fill="#FBFCFD"/>
<path fill-rule="evenodd" clip-rule="evenodd" d="M26.6998 26.104C28.7062 26.104 30.7125 26.104 32.7189 26.104C32.7189 26.5729 32.7189 27.0419 32.7189 27.5108C30.7125 27.5108 28.7062 27.5108 26.6998 27.5108C26.6998 27.0419 26.6998 26.5729 26.6998 26.104Z" fill="#5061A9"/>
<path fill-rule="evenodd" clip-rule="evenodd" d="M26.6998 26.104C26.6998 26.5729 26.6998 27.0419 26.6998 27.5108C28.7062 27.5108 30.7125 27.5108 32.7189 27.5108C30.6884 27.6665 28.6305 27.7185 26.5455 27.6671C26.4972 27.1135 26.5487 26.5925 26.6998 26.104Z" fill="#7C89BF"/>
<path fill-rule="evenodd" clip-rule="evenodd" d="M26.5455 29.6987C30.7126 29.6987 34.8796 29.6987 39.0466 29.6987C39.0466 30.2197 39.0466 30.7409 39.0466 31.2618C34.8796 31.2618 30.7126 31.2618 26.5455 31.2618C26.5455 30.7409 26.5455 30.2197 26.5455 29.6987Z" fill="#5161A9"/>
<path fill-rule="evenodd" clip-rule="evenodd" d="M38.8923 34.8571C38.8923 34.3361 38.8923 33.815 38.8923 33.294C34.8282 33.294 30.764 33.294 26.6999 33.294C26.6999 33.815 26.6999 34.3361 26.6999 34.8571C26.5483 34.316 26.4969 33.7428 26.5456 33.1377C30.7126 33.1377 34.8796 33.1377 39.0466 33.1377C39.0953 33.7428 39.0439 34.316 38.8923 34.8571Z" fill="#A0A9D0"/>
<path fill-rule="evenodd" clip-rule="evenodd" d="M38.8922 34.857C34.8282 34.857 30.7639 34.857 26.6998 34.857C26.6998 34.3361 26.6998 33.8149 26.6998 33.2939C30.7639 33.2939 34.8282 33.2939 38.8922 33.2939C38.8922 33.8149 38.8922 34.3361 38.8922 34.857Z" fill="#5061A9"/>
</svg>
